%TF.GenerationSoftware,KiCad,Pcbnew,10.0.1*%
%TF.CreationDate,2026-06-25T17:46:55-04:00*%
%TF.ProjectId,hackician,6861636b-6963-4696-916e-2e6b69636164,rev?*%
%TF.SameCoordinates,Original*%
%TF.FileFunction,Soldermask,Top*%
%TF.FilePolarity,Negative*%
%FSLAX46Y46*%
G04 Gerber Fmt 4.6, Leading zero omitted, Abs format (unit mm)*
G04 Created by KiCad (PCBNEW 10.0.1) date 2026-06-25 17:46:55*
%MOMM*%
%LPD*%
G01*
G04 APERTURE LIST*
G04 Aperture macros list*
%AMRoundRect*
0 Rectangle with rounded corners*
0 $1 Rounding radius*
0 $2 $3 $4 $5 $6 $7 $8 $9 X,Y pos of 4 corners*
0 Add a 4 corners polygon primitive as box body*
4,1,4,$2,$3,$4,$5,$6,$7,$8,$9,$2,$3,0*
0 Add four circle primitives for the rounded corners*
1,1,$1+$1,$2,$3*
1,1,$1+$1,$4,$5*
1,1,$1+$1,$6,$7*
1,1,$1+$1,$8,$9*
0 Add four rect primitives between the rounded corners*
20,1,$1+$1,$2,$3,$4,$5,0*
20,1,$1+$1,$4,$5,$6,$7,0*
20,1,$1+$1,$6,$7,$8,$9,0*
20,1,$1+$1,$8,$9,$2,$3,0*%
G04 Aperture macros list end*
%ADD10C,0.200000*%
%ADD11C,0.000000*%
%ADD12C,0.300000*%
%ADD13C,0.150000*%
%ADD14RoundRect,0.250000X-0.201314X0.751314X-0.751314X-0.201314X0.201314X-0.751314X0.751314X0.201314X0*%
%ADD15C,1.600000*%
%ADD16RoundRect,0.250000X0.214711X-0.528109X0.564711X0.078109X-0.214711X0.528109X-0.564711X-0.078109X0*%
%ADD17RoundRect,0.381000X-0.051044X-0.850411X0.710956X0.469411X0.051044X0.850411X-0.710956X-0.469411X0*%
%ADD18RoundRect,0.250000X0.128109X-0.478109X0.478109X0.128109X-0.128109X0.478109X-0.478109X-0.128109X0*%
%ADD19C,1.200000*%
%ADD20C,3.200000*%
%ADD21C,4.000000*%
%ADD22RoundRect,0.150000X-0.282596X-0.789471X0.542404X0.639471X0.282596X0.789471X-0.542404X-0.639471X0*%
%ADD23R,2.000000X2.000000*%
%ADD24C,2.000000*%
%ADD25C,2.500000*%
%ADD26RoundRect,0.250000X-0.750000X-0.750000X0.750000X-0.750000X0.750000X0.750000X-0.750000X0.750000X0*%
G04 APERTURE END LIST*
D10*
X135000000Y-89250000D02*
X134000000Y-95000000D01*
X125250000Y-91250000D01*
X132500000Y-84000000D01*
X135000000Y-89250000D01*
G36*
X135000000Y-89250000D02*
G01*
X134000000Y-95000000D01*
X125250000Y-91250000D01*
X132500000Y-84000000D01*
X135000000Y-89250000D01*
G37*
X56750000Y-63250000D02*
X62500000Y-62750000D01*
X60750000Y-65250000D01*
X61000000Y-67250000D01*
X58000000Y-69500000D01*
X54750000Y-68250000D01*
X55000000Y-63250000D01*
X54250000Y-62000000D01*
X56750000Y-63250000D01*
G36*
X56750000Y-63250000D02*
G01*
X62500000Y-62750000D01*
X60750000Y-65250000D01*
X61000000Y-67250000D01*
X58000000Y-69500000D01*
X54750000Y-68250000D01*
X55000000Y-63250000D01*
X54250000Y-62000000D01*
X56750000Y-63250000D01*
G37*
D11*
G36*
X101337648Y-72422425D02*
G01*
X101494366Y-72425501D01*
X101641864Y-72430335D01*
X101769436Y-72436780D01*
X101866374Y-72444694D01*
X102116999Y-72478042D01*
X102363250Y-72521726D01*
X102604720Y-72575539D01*
X102841005Y-72639273D01*
X103071699Y-72712722D01*
X103296395Y-72795680D01*
X103514689Y-72887940D01*
X103726175Y-72989294D01*
X103930446Y-73099538D01*
X104127098Y-73218462D01*
X104315724Y-73345862D01*
X104495920Y-73481530D01*
X104667278Y-73625259D01*
X104829395Y-73776843D01*
X104981863Y-73936076D01*
X105124278Y-74102749D01*
X105230644Y-74240415D01*
X105332682Y-74383952D01*
X105430239Y-74532987D01*
X105523164Y-74687148D01*
X105611304Y-74846063D01*
X105694506Y-75009361D01*
X105772618Y-75176668D01*
X105845487Y-75347614D01*
X105912962Y-75521825D01*
X105974889Y-75698931D01*
X106031115Y-75878558D01*
X106081490Y-76060335D01*
X106125860Y-76243890D01*
X106164072Y-76428850D01*
X106195975Y-76614844D01*
X106221416Y-76801500D01*
X106265513Y-77171916D01*
X106273038Y-77241962D01*
X106278412Y-77316224D01*
X106281637Y-77393298D01*
X106282712Y-77471777D01*
X106281637Y-77550256D01*
X106278412Y-77627330D01*
X106273038Y-77701592D01*
X106265513Y-77771638D01*
X106221416Y-78133236D01*
X106193600Y-78324666D01*
X106158531Y-78513887D01*
X106116344Y-78700744D01*
X106067175Y-78885086D01*
X106011161Y-79066759D01*
X105948436Y-79245609D01*
X105879138Y-79421485D01*
X105803402Y-79594232D01*
X105633160Y-79929728D01*
X105438797Y-80250874D01*
X105221403Y-80556444D01*
X104982064Y-80845215D01*
X104721869Y-81115960D01*
X104441904Y-81367457D01*
X104143259Y-81598479D01*
X103827020Y-81807802D01*
X103494276Y-81994201D01*
X103322054Y-82078422D01*
X103146114Y-82156452D01*
X102966592Y-82228139D01*
X102783623Y-82293330D01*
X102597343Y-82351871D01*
X102407889Y-82403610D01*
X102241439Y-82443832D01*
X102090967Y-82476343D01*
X101949963Y-82501868D01*
X101811914Y-82521130D01*
X101670310Y-82534852D01*
X101518640Y-82543757D01*
X101350392Y-82548570D01*
X101159054Y-82550014D01*
X101031321Y-82549662D01*
X100920351Y-82548525D01*
X100823727Y-82546479D01*
X100739029Y-82543399D01*
X100663840Y-82539161D01*
X100595741Y-82533642D01*
X100532313Y-82526718D01*
X100471138Y-82518263D01*
X100240806Y-82481001D01*
X100021512Y-82437455D01*
X99915113Y-82413067D01*
X99810403Y-82386799D01*
X99707027Y-82358545D01*
X99604628Y-82328204D01*
X99502848Y-82295672D01*
X99401332Y-82260846D01*
X99299724Y-82223622D01*
X99197665Y-82183896D01*
X98990773Y-82096528D01*
X98777804Y-81997916D01*
X98622562Y-81920281D01*
X98471495Y-81839855D01*
X98322329Y-81755171D01*
X98172791Y-81664761D01*
X98020607Y-81567158D01*
X97863504Y-81460894D01*
X97699208Y-81344502D01*
X97525444Y-81216513D01*
X97320119Y-81059827D01*
X97119446Y-80899647D01*
X96917325Y-80730496D01*
X96707660Y-80546896D01*
X96484353Y-80343370D01*
X96241305Y-80114440D01*
X95972419Y-79854629D01*
X95671596Y-79558457D01*
X95508072Y-79396107D01*
X95370798Y-79261104D01*
X95257916Y-79151692D01*
X95210041Y-79106032D01*
X95167565Y-79066112D01*
X95130257Y-79031710D01*
X95097885Y-79002608D01*
X95070214Y-78978586D01*
X95047014Y-78959424D01*
X95028051Y-78944903D01*
X95013094Y-78934802D01*
X95007044Y-78931341D01*
X95001908Y-78928903D01*
X94997657Y-78927460D01*
X94994263Y-78926985D01*
X94987183Y-78928627D01*
X94977068Y-78933672D01*
X94963734Y-78942298D01*
X94946996Y-78954684D01*
X94902578Y-78991446D01*
X94842348Y-79045386D01*
X94764837Y-79117929D01*
X94668578Y-79210503D01*
X94413944Y-79461443D01*
X94015856Y-79851621D01*
X93846785Y-80014433D01*
X93692513Y-80160605D01*
X93549156Y-80293796D01*
X93412827Y-80417664D01*
X93279639Y-80535869D01*
X93145708Y-80652068D01*
X92967499Y-80802049D01*
X92791273Y-80945136D01*
X92616860Y-81081422D01*
X92444093Y-81211001D01*
X92272804Y-81333965D01*
X92102825Y-81450408D01*
X91933988Y-81560422D01*
X91766126Y-81664100D01*
X91599069Y-81761536D01*
X91432651Y-81852823D01*
X91266703Y-81938053D01*
X91101057Y-82017319D01*
X90935546Y-82090715D01*
X90770001Y-82158334D01*
X90604254Y-82220268D01*
X90438138Y-82276611D01*
X90131147Y-82367448D01*
X89824370Y-82441562D01*
X89518353Y-82499016D01*
X89213641Y-82539871D01*
X88910779Y-82564190D01*
X88610312Y-82572035D01*
X88312785Y-82563467D01*
X88018744Y-82538548D01*
X87728733Y-82497341D01*
X87443299Y-82439908D01*
X87162986Y-82366310D01*
X86888339Y-82276610D01*
X86619904Y-82170870D01*
X86358225Y-82049151D01*
X86103848Y-81911516D01*
X85857319Y-81758027D01*
X85718983Y-81662156D01*
X85583909Y-81560578D01*
X85452297Y-81453538D01*
X85324348Y-81341281D01*
X85200266Y-81224052D01*
X85080250Y-81102098D01*
X84964502Y-80975664D01*
X84853225Y-80844994D01*
X84746619Y-80710335D01*
X84644886Y-80571932D01*
X84548228Y-80430031D01*
X84456846Y-80284877D01*
X84370941Y-80136715D01*
X84290716Y-79985791D01*
X84216372Y-79832350D01*
X84148110Y-79676638D01*
X84076742Y-79496518D01*
X84011078Y-79309226D01*
X83951533Y-79116517D01*
X83898520Y-78920150D01*
X83852452Y-78721882D01*
X83813743Y-78523468D01*
X83782806Y-78326667D01*
X83760055Y-78133236D01*
X83740211Y-77952216D01*
X83730785Y-77867577D01*
X83723013Y-77801624D01*
X83712485Y-77708551D01*
X83706256Y-77616305D01*
X83704657Y-77519595D01*
X83706382Y-77464980D01*
X85860264Y-77464980D01*
X85861122Y-77562125D01*
X85865122Y-77660597D01*
X85872201Y-77760090D01*
X85882299Y-77860296D01*
X85895352Y-77960908D01*
X85911300Y-78061618D01*
X85930079Y-78162119D01*
X85951628Y-78262103D01*
X85975885Y-78361263D01*
X86002788Y-78459291D01*
X86032274Y-78555880D01*
X86064283Y-78650722D01*
X86098751Y-78743510D01*
X86135617Y-78833937D01*
X86174818Y-78921694D01*
X86269500Y-79106630D01*
X86375320Y-79281582D01*
X86491842Y-79446282D01*
X86618630Y-79600460D01*
X86755246Y-79743849D01*
X86901255Y-79876178D01*
X87056219Y-79997180D01*
X87219702Y-80106586D01*
X87391268Y-80204127D01*
X87570478Y-80289534D01*
X87756898Y-80362539D01*
X87950090Y-80422873D01*
X88149617Y-80470268D01*
X88355044Y-80504453D01*
X88565932Y-80525162D01*
X88781846Y-80532124D01*
X88989871Y-80526039D01*
X89197456Y-80507671D01*
X89404948Y-80476849D01*
X89612693Y-80433402D01*
X89821038Y-80377160D01*
X90030328Y-80307952D01*
X90240910Y-80225608D01*
X90453131Y-80129958D01*
X90667336Y-80020830D01*
X90883871Y-79898055D01*
X91103083Y-79761461D01*
X91325319Y-79610879D01*
X91550924Y-79446137D01*
X91780244Y-79267065D01*
X92013626Y-79073493D01*
X92251416Y-78865250D01*
X92386743Y-78739645D01*
X92573684Y-78560565D01*
X93018487Y-78125078D01*
X93417981Y-77724978D01*
X93548284Y-77590134D01*
X93586897Y-77548101D01*
X93604319Y-77526458D01*
X93605870Y-77523403D01*
X93607216Y-77520208D01*
X93608361Y-77516900D01*
X93609307Y-77513504D01*
X93610057Y-77510046D01*
X93610613Y-77506552D01*
X93610978Y-77503047D01*
X93611132Y-77500000D01*
X96373624Y-77500000D01*
X96384689Y-77515245D01*
X96414597Y-77548458D01*
X96523142Y-77661120D01*
X96880522Y-78017701D01*
X97320916Y-78447042D01*
X97719472Y-78826443D01*
X97883069Y-78976305D01*
X98043255Y-79118395D01*
X98200217Y-79252836D01*
X98354141Y-79379754D01*
X98505211Y-79499271D01*
X98653616Y-79611512D01*
X98799540Y-79716601D01*
X98943169Y-79814662D01*
X99084690Y-79905820D01*
X99224289Y-79990197D01*
X99362151Y-80067918D01*
X99498463Y-80139108D01*
X99633411Y-80203889D01*
X99767181Y-80262387D01*
X99899959Y-80314725D01*
X100031930Y-80361027D01*
X100177496Y-80406995D01*
X100306132Y-80443682D01*
X100366046Y-80458848D01*
X100424060Y-80472059D01*
X100480954Y-80483435D01*
X100537504Y-80493098D01*
X100594488Y-80501170D01*
X100652684Y-80507771D01*
X100712869Y-80513023D01*
X100775822Y-80517048D01*
X100913140Y-80521903D01*
X101070860Y-80523305D01*
X101223894Y-80521944D01*
X101358181Y-80517379D01*
X101419824Y-80513669D01*
X101478618Y-80508887D01*
X101535174Y-80502942D01*
X101590105Y-80495744D01*
X101644023Y-80487202D01*
X101697540Y-80477227D01*
X101751270Y-80465727D01*
X101805824Y-80452612D01*
X101861814Y-80437791D01*
X101919853Y-80421175D01*
X102044528Y-80382194D01*
X102251454Y-80305598D01*
X102450525Y-80214504D01*
X102641204Y-80109586D01*
X102822954Y-79991520D01*
X102995236Y-79860979D01*
X103157514Y-79718637D01*
X103309249Y-79565170D01*
X103449906Y-79401251D01*
X103578945Y-79227555D01*
X103695831Y-79044756D01*
X103800024Y-78853529D01*
X103890988Y-78654547D01*
X103968186Y-78448486D01*
X104031080Y-78236020D01*
X104079132Y-78017822D01*
X104111806Y-77794569D01*
X104122223Y-77672911D01*
X104127095Y-77548417D01*
X104126541Y-77421638D01*
X104120680Y-77293128D01*
X104109631Y-77163440D01*
X104093512Y-77033127D01*
X104072443Y-76902741D01*
X104046541Y-76772836D01*
X104015927Y-76643964D01*
X103980719Y-76516679D01*
X103941036Y-76391534D01*
X103896997Y-76269080D01*
X103848720Y-76149872D01*
X103796324Y-76034462D01*
X103739929Y-75923404D01*
X103679652Y-75817249D01*
X103591314Y-75679684D01*
X103496408Y-75548842D01*
X103395104Y-75424831D01*
X103287573Y-75307761D01*
X103173986Y-75197739D01*
X103054513Y-75094875D01*
X102929324Y-74999276D01*
X102798591Y-74911051D01*
X102662483Y-74830310D01*
X102521171Y-74757159D01*
X102374826Y-74691708D01*
X102223618Y-74634066D01*
X102067717Y-74584340D01*
X101907296Y-74542640D01*
X101742522Y-74509074D01*
X101573569Y-74483750D01*
X101488371Y-74475306D01*
X101389077Y-74469776D01*
X101279943Y-74467099D01*
X101165228Y-74467213D01*
X101049190Y-74470055D01*
X100936088Y-74475564D01*
X100830178Y-74483677D01*
X100735721Y-74494332D01*
X100567608Y-74520750D01*
X100399790Y-74555107D01*
X100232023Y-74597532D01*
X100064066Y-74648149D01*
X99895674Y-74707086D01*
X99726605Y-74774470D01*
X99556616Y-74850427D01*
X99385464Y-74935084D01*
X99212907Y-75028567D01*
X99038702Y-75131003D01*
X98862604Y-75242519D01*
X98684373Y-75363241D01*
X98503765Y-75493295D01*
X98320536Y-75632809D01*
X98134445Y-75781909D01*
X97945248Y-75940721D01*
X97728394Y-76132882D01*
X97479417Y-76363448D01*
X97217294Y-76613610D01*
X96960999Y-76864558D01*
X96729510Y-77097481D01*
X96541800Y-77293569D01*
X96470293Y-77371922D01*
X96416847Y-77434012D01*
X96383833Y-77477488D01*
X96375730Y-77491512D01*
X96373624Y-77500000D01*
X93611132Y-77500000D01*
X93611154Y-77499558D01*
X93611144Y-77496111D01*
X93610951Y-77492730D01*
X93610576Y-77489443D01*
X93610024Y-77486274D01*
X93609295Y-77483250D01*
X93608394Y-77480397D01*
X93607322Y-77477740D01*
X93606082Y-77475305D01*
X93545862Y-77412642D01*
X93397172Y-77265374D01*
X92938891Y-76818477D01*
X92440262Y-76337514D01*
X92110305Y-76025388D01*
X91919034Y-75854520D01*
X91731324Y-75694370D01*
X91546890Y-75544782D01*
X91365448Y-75405602D01*
X91186714Y-75276674D01*
X91010403Y-75157844D01*
X90836232Y-75048957D01*
X90663916Y-74949857D01*
X90493171Y-74860389D01*
X90323713Y-74780399D01*
X90155257Y-74709732D01*
X89987520Y-74648232D01*
X89820216Y-74595744D01*
X89653063Y-74552114D01*
X89485775Y-74517186D01*
X89318069Y-74490805D01*
X89249734Y-74482679D01*
X89179262Y-74476149D01*
X89107039Y-74471201D01*
X89033448Y-74467819D01*
X88883707Y-74465690D01*
X88733119Y-74469638D01*
X88584763Y-74479539D01*
X88512384Y-74486684D01*
X88441719Y-74495270D01*
X88373152Y-74505282D01*
X88307067Y-74516705D01*
X88243851Y-74529523D01*
X88183888Y-74543722D01*
X88115824Y-74561725D01*
X88046753Y-74581917D01*
X87976947Y-74604171D01*
X87906682Y-74628361D01*
X87836230Y-74654359D01*
X87765867Y-74682039D01*
X87695865Y-74711274D01*
X87626499Y-74741939D01*
X87558042Y-74773905D01*
X87490769Y-74807047D01*
X87424953Y-74841239D01*
X87360868Y-74876352D01*
X87298789Y-74912262D01*
X87238988Y-74948840D01*
X87181740Y-74985962D01*
X87127318Y-75023499D01*
X87085737Y-75054229D01*
X87041973Y-75088591D01*
X86996447Y-75126167D01*
X86949579Y-75166540D01*
X86901792Y-75209289D01*
X86853506Y-75253997D01*
X86757122Y-75347614D01*
X86663798Y-75444042D01*
X86619336Y-75492264D01*
X86576902Y-75539933D01*
X86536918Y-75586630D01*
X86499805Y-75631938D01*
X86465983Y-75675436D01*
X86435874Y-75716708D01*
X86372753Y-75809102D01*
X86313067Y-75903625D01*
X86256858Y-76000132D01*
X86204171Y-76098479D01*
X86155049Y-76198521D01*
X86109537Y-76300114D01*
X86067679Y-76403112D01*
X86029518Y-76507371D01*
X85995099Y-76612746D01*
X85964464Y-76719092D01*
X85937659Y-76826266D01*
X85914728Y-76934121D01*
X85895713Y-77042515D01*
X85880659Y-77151300D01*
X85869610Y-77260334D01*
X85862610Y-77369471D01*
X85860264Y-77464980D01*
X83706382Y-77464980D01*
X83708020Y-77413128D01*
X83716674Y-77291612D01*
X83730950Y-77149757D01*
X83751180Y-76982270D01*
X83777693Y-76783860D01*
X83801774Y-76625754D01*
X83831017Y-76468948D01*
X83865417Y-76313459D01*
X83904969Y-76159306D01*
X83949668Y-76006507D01*
X83999509Y-75855080D01*
X84054487Y-75705043D01*
X84114596Y-75556414D01*
X84179832Y-75409212D01*
X84250188Y-75263454D01*
X84325661Y-75119158D01*
X84406244Y-74976343D01*
X84491933Y-74835026D01*
X84582723Y-74695227D01*
X84678607Y-74556962D01*
X84779582Y-74420249D01*
X84814577Y-74375602D01*
X84855564Y-74326164D01*
X84952526Y-74215914D01*
X85064495Y-74095494D01*
X85185497Y-73970899D01*
X85309559Y-73848122D01*
X85430705Y-73733160D01*
X85542964Y-73632005D01*
X85593893Y-73588479D01*
X85640360Y-73550652D01*
X85774553Y-73448189D01*
X85911220Y-73350485D01*
X86050358Y-73257546D01*
X86191961Y-73169377D01*
X86336024Y-73085982D01*
X86482541Y-73007367D01*
X86631508Y-72933538D01*
X86782919Y-72864499D01*
X86936770Y-72800256D01*
X87093054Y-72740813D01*
X87251767Y-72686177D01*
X87412903Y-72636351D01*
X87576458Y-72591342D01*
X87742427Y-72551154D01*
X87910803Y-72515793D01*
X88081582Y-72485263D01*
X88153926Y-72473973D01*
X88222115Y-72465061D01*
X88291089Y-72458257D01*
X88365789Y-72453292D01*
X88451155Y-72449899D01*
X88552127Y-72447808D01*
X88820652Y-72446457D01*
X88939670Y-72446282D01*
X89049158Y-72447036D01*
X89148849Y-72448659D01*
X89238473Y-72451088D01*
X89317762Y-72454261D01*
X89386447Y-72458116D01*
X89444259Y-72462591D01*
X89490930Y-72467624D01*
X89741821Y-72508606D01*
X89988364Y-72559753D01*
X90231377Y-72621514D01*
X90471679Y-72694339D01*
X90710091Y-72778678D01*
X90947430Y-72874979D01*
X91184516Y-72983694D01*
X91422168Y-73105270D01*
X91661204Y-73240158D01*
X91902445Y-73388808D01*
X92146709Y-73551669D01*
X92394815Y-73729191D01*
X92647582Y-73921822D01*
X92905829Y-74130014D01*
X93170376Y-74354214D01*
X93442041Y-74594874D01*
X93591034Y-74733698D01*
X93807166Y-74940817D01*
X94061662Y-75187954D01*
X94325750Y-75446832D01*
X94486436Y-75605765D01*
X94621697Y-75738343D01*
X94733228Y-75846157D01*
X94780625Y-75891275D01*
X94822725Y-75930800D01*
X94859740Y-75964929D01*
X94891882Y-75993862D01*
X94919362Y-76017798D01*
X94942393Y-76036936D01*
X94961187Y-76051475D01*
X94975955Y-76061613D01*
X94981896Y-76065095D01*
X94986910Y-76067551D01*
X94991023Y-76069006D01*
X94994263Y-76069485D01*
X95001594Y-76067591D01*
X95012480Y-76061775D01*
X95045746Y-76037570D01*
X95095714Y-75995257D01*
X95164037Y-75933225D01*
X95252369Y-75849860D01*
X95362365Y-75743552D01*
X95653958Y-75455652D01*
X95913167Y-75200908D01*
X96161296Y-74960220D01*
X96370069Y-74760873D01*
X96450860Y-74685229D01*
X96511207Y-74630152D01*
X96800598Y-74378041D01*
X97084461Y-74142723D01*
X97363431Y-73923873D01*
X97638140Y-73721170D01*
X97909221Y-73534291D01*
X98177308Y-73362911D01*
X98443033Y-73206710D01*
X98707029Y-73065362D01*
X98969930Y-72938546D01*
X99232368Y-72825938D01*
X99494976Y-72727216D01*
X99758389Y-72642057D01*
X100023238Y-72570136D01*
X100290156Y-72511133D01*
X100559778Y-72464722D01*
X100832735Y-72430583D01*
X100919255Y-72425184D01*
X101039386Y-72422122D01*
X101182419Y-72421250D01*
X101337648Y-72422425D01*
G37*
D10*
X51389081Y-61500000D02*
X51389081Y-60100000D01*
X51389081Y-65700000D02*
X51389081Y-64300000D01*
X51389081Y-69900000D02*
X51389081Y-68500000D01*
X51389081Y-73974400D02*
X51389081Y-72574400D01*
X51389081Y-78174400D02*
X51389081Y-76774400D01*
X51389081Y-82300000D02*
X51389081Y-80900000D01*
X51389081Y-86500000D02*
X51389081Y-85100000D01*
X51389081Y-90700000D02*
X51389081Y-89300000D01*
X51389081Y-94900000D02*
X51389081Y-93500000D01*
X51396714Y-60087200D02*
X52796714Y-58687200D01*
X51396714Y-64287200D02*
X52796714Y-62887200D01*
X51396714Y-68487200D02*
X52796714Y-67087200D01*
X51396714Y-72561600D02*
X52796714Y-71161600D01*
X51396714Y-76761600D02*
X52796714Y-75361600D01*
X51396714Y-80887200D02*
X52796714Y-79487200D01*
X51396714Y-85087200D02*
X52796714Y-83687200D01*
X51396714Y-89287200D02*
X52796714Y-87887200D01*
X51396714Y-93487200D02*
X52796714Y-92087200D01*
X52789081Y-58700000D02*
X54189081Y-60100000D01*
X52789081Y-62900000D02*
X51389081Y-61500000D01*
X52789081Y-62900000D02*
X54189081Y-64300000D01*
X52789081Y-67100000D02*
X51389081Y-65700000D01*
X52789081Y-67100000D02*
X54189081Y-68500000D01*
X52789081Y-71174400D02*
X54189081Y-72574400D01*
X52789081Y-71300000D02*
X51389081Y-69900000D01*
X52789081Y-75374400D02*
X51389081Y-73974400D01*
X52789081Y-75374400D02*
X54189081Y-76774400D01*
X52789081Y-79500000D02*
X54189081Y-80900000D01*
X52789081Y-79574400D02*
X51389081Y-78174400D01*
X52789081Y-83700000D02*
X51389081Y-82300000D01*
X52789081Y-83700000D02*
X54189081Y-85100000D01*
X52789081Y-87900000D02*
X51389081Y-86500000D01*
X52789081Y-87900000D02*
X54189081Y-89300000D01*
X52789081Y-92100000D02*
X51389081Y-90700000D01*
X52789081Y-92100000D02*
X54189081Y-93500000D01*
X52789081Y-96300000D02*
X51389081Y-94900000D01*
X54181448Y-61512800D02*
X52781448Y-62912800D01*
X54181448Y-65712800D02*
X52781448Y-67112800D01*
X54181448Y-69912800D02*
X52781448Y-71312800D01*
X54181448Y-73987200D02*
X52781448Y-75387200D01*
X54181448Y-78187200D02*
X52781448Y-79587200D01*
X54181448Y-82312800D02*
X52781448Y-83712800D01*
X54181448Y-86512800D02*
X52781448Y-87912800D01*
X54181448Y-90712800D02*
X52781448Y-92112800D01*
X54181448Y-94912800D02*
X52781448Y-96312800D01*
X54189081Y-60100000D02*
X54189081Y-61500000D01*
X54189081Y-64300000D02*
X54189081Y-65700000D01*
X54189081Y-68500000D02*
X54189081Y-69900000D01*
X54189081Y-72574400D02*
X54189081Y-73974400D01*
X54189081Y-76774400D02*
X54189081Y-78174400D01*
X54189081Y-80900000D02*
X54189081Y-82300000D01*
X54189081Y-85100000D02*
X54189081Y-86500000D01*
X54189081Y-89300000D02*
X54189081Y-90700000D01*
X54189081Y-93500000D02*
X54189081Y-94900000D01*
X57400000Y-53000000D02*
X58800000Y-51600000D01*
X57400000Y-102000000D02*
X58800000Y-100600000D01*
X58787200Y-54392367D02*
X57387200Y-52992367D01*
X58787200Y-103392367D02*
X57387200Y-101992367D01*
X58800000Y-51600000D02*
X60200000Y-51600000D01*
X58800000Y-100600000D02*
X60200000Y-100600000D01*
X60200000Y-54400000D02*
X58800000Y-54400000D01*
X60200000Y-103400000D02*
X58800000Y-103400000D01*
X60212800Y-51607633D02*
X61612800Y-53007633D01*
X60212800Y-100607633D02*
X61612800Y-102007633D01*
X61600000Y-53000000D02*
X60200000Y-54400000D01*
X61600000Y-53000000D02*
X63000000Y-51600000D01*
X61600000Y-102000000D02*
X60200000Y-103400000D01*
X61600000Y-102000000D02*
X63000000Y-100600000D01*
X62987200Y-54392367D02*
X61587200Y-52992367D01*
X62987200Y-103392367D02*
X61587200Y-101992367D01*
X63000000Y-51600000D02*
X64400000Y-51600000D01*
X63000000Y-100600000D02*
X64400000Y-100600000D01*
X64400000Y-54400000D02*
X63000000Y-54400000D01*
X64400000Y-103400000D02*
X63000000Y-103400000D01*
X64412800Y-51607633D02*
X65812800Y-53007633D01*
X64412800Y-100607633D02*
X65812800Y-102007633D01*
X65800000Y-53000000D02*
X64400000Y-54400000D01*
X65800000Y-53000000D02*
X67200000Y-51600000D01*
X65800000Y-102000000D02*
X64400000Y-103400000D01*
X65800000Y-102000000D02*
X67200000Y-100600000D01*
X67187200Y-54392367D02*
X65787200Y-52992367D01*
X67187200Y-103392367D02*
X65787200Y-101992367D01*
X67200000Y-51600000D02*
X68600000Y-51600000D01*
X67200000Y-100600000D02*
X68600000Y-100600000D01*
X68600000Y-54400000D02*
X67200000Y-54400000D01*
X68600000Y-103400000D02*
X67200000Y-103400000D01*
X68612800Y-51607633D02*
X70012800Y-53007633D01*
X68612800Y-100607633D02*
X70012800Y-102007633D01*
X69912800Y-53000000D02*
X71312800Y-51600000D01*
X69912800Y-102000000D02*
X71312800Y-100600000D01*
X70000000Y-53000000D02*
X68600000Y-54400000D01*
X70000000Y-102000000D02*
X68600000Y-103400000D01*
X71300000Y-54392367D02*
X69900000Y-52992367D01*
X71300000Y-103392367D02*
X69900000Y-101992367D01*
X71312800Y-51600000D02*
X72712800Y-51600000D01*
X71312800Y-100600000D02*
X72712800Y-100600000D01*
X72712800Y-54400000D02*
X71312800Y-54400000D01*
X72712800Y-103400000D02*
X71312800Y-103400000D01*
X72725600Y-51607633D02*
X74125600Y-53007633D01*
X72725600Y-100607633D02*
X74125600Y-102007633D01*
X74112800Y-53000000D02*
X72712800Y-54400000D01*
X74112800Y-53000000D02*
X75512800Y-51600000D01*
X74112800Y-102000000D02*
X72712800Y-103400000D01*
X74112800Y-102000000D02*
X75512800Y-100600000D01*
X75500000Y-54392367D02*
X74100000Y-52992367D01*
X75500000Y-103392367D02*
X74100000Y-101992367D01*
X75512800Y-51600000D02*
X76912800Y-51600000D01*
X75512800Y-100600000D02*
X76912800Y-100600000D01*
X76912800Y-54400000D02*
X75512800Y-54400000D01*
X76912800Y-103400000D02*
X75512800Y-103400000D01*
X76925600Y-51607633D02*
X78325600Y-53007633D01*
X76925600Y-100607633D02*
X78325600Y-102007633D01*
X78312800Y-53000000D02*
X76912800Y-54400000D01*
X78312800Y-53000000D02*
X79712800Y-51600000D01*
X78312800Y-102000000D02*
X76912800Y-103400000D01*
X78312800Y-102000000D02*
X79712800Y-100600000D01*
X79700000Y-54392367D02*
X78300000Y-52992367D01*
X79700000Y-103392367D02*
X78300000Y-101992367D01*
X79712800Y-51600000D02*
X81112800Y-51600000D01*
X79712800Y-100600000D02*
X81112800Y-100600000D01*
X81112800Y-54400000D02*
X79712800Y-54400000D01*
X81112800Y-103400000D02*
X79712800Y-103400000D01*
X81125600Y-51607633D02*
X82525600Y-53007633D01*
X81125600Y-100607633D02*
X82525600Y-102007633D01*
X82512800Y-53000000D02*
X81112800Y-54400000D01*
X82512800Y-53000000D02*
X83912800Y-51600000D01*
X82512800Y-102000000D02*
X81112800Y-103400000D01*
X82512800Y-102000000D02*
X83912800Y-100600000D01*
X83900000Y-54392367D02*
X82500000Y-52992367D01*
X83900000Y-103392367D02*
X82500000Y-101992367D01*
X83912800Y-51600000D02*
X85312800Y-51600000D01*
X83912800Y-100600000D02*
X85312800Y-100600000D01*
X85312800Y-54400000D02*
X83912800Y-54400000D01*
X85312800Y-103400000D02*
X83912800Y-103400000D01*
X85325600Y-51607633D02*
X86725600Y-53007633D01*
X85325600Y-100607633D02*
X86725600Y-102007633D01*
X86612800Y-53000000D02*
X88012800Y-51600000D01*
X86612800Y-102000000D02*
X88012800Y-100600000D01*
X86712800Y-53000000D02*
X85312800Y-54400000D01*
X86712800Y-102000000D02*
X85312800Y-103400000D01*
X88000000Y-54392367D02*
X86600000Y-52992367D01*
X88000000Y-103392367D02*
X86600000Y-101992367D01*
X88012800Y-51600000D02*
X89412800Y-51600000D01*
X88012800Y-100600000D02*
X89412800Y-100600000D01*
X89412800Y-54400000D02*
X88012800Y-54400000D01*
X89412800Y-103400000D02*
X88012800Y-103400000D01*
X89425600Y-51607633D02*
X90825600Y-53007633D01*
X89425600Y-100607633D02*
X90825600Y-102007633D01*
X90812800Y-53000000D02*
X89412800Y-54400000D01*
X90812800Y-53000000D02*
X92212800Y-51600000D01*
X90812800Y-102000000D02*
X89412800Y-103400000D01*
X90812800Y-102000000D02*
X92212800Y-100600000D01*
X92200000Y-54392367D02*
X90800000Y-52992367D01*
X92200000Y-103392367D02*
X90800000Y-101992367D01*
X92212800Y-51600000D02*
X93612800Y-51600000D01*
X92212800Y-100600000D02*
X93612800Y-100600000D01*
X93612800Y-54400000D02*
X92212800Y-54400000D01*
X93612800Y-103400000D02*
X92212800Y-103400000D01*
X93625600Y-51607633D02*
X95025600Y-53007633D01*
X93625600Y-100607633D02*
X95025600Y-102007633D01*
X95012800Y-53000000D02*
X93612800Y-54400000D01*
X95012800Y-53000000D02*
X96412800Y-51600000D01*
X95012800Y-102000000D02*
X93612800Y-103400000D01*
X95012800Y-102000000D02*
X96412800Y-100600000D01*
X96400000Y-54392367D02*
X95000000Y-52992367D01*
X96400000Y-103392367D02*
X95000000Y-101992367D01*
X96412800Y-51600000D02*
X97812800Y-51600000D01*
X96412800Y-100600000D02*
X97812800Y-100600000D01*
X97812800Y-54400000D02*
X96412800Y-54400000D01*
X97812800Y-103400000D02*
X96412800Y-103400000D01*
X97825600Y-51607633D02*
X99225600Y-53007633D01*
X97825600Y-100607633D02*
X99225600Y-102007633D01*
X99212800Y-53000000D02*
X97812800Y-54400000D01*
X99212800Y-53000000D02*
X100612800Y-51600000D01*
X99212800Y-102000000D02*
X97812800Y-103400000D01*
X99212800Y-102000000D02*
X100612800Y-100600000D01*
X100600000Y-54392367D02*
X99200000Y-52992367D01*
X100600000Y-103392367D02*
X99200000Y-101992367D01*
X100612800Y-51600000D02*
X102012800Y-51600000D01*
X100612800Y-100600000D02*
X102012800Y-100600000D01*
X102012800Y-54400000D02*
X100612800Y-54400000D01*
X102012800Y-103400000D02*
X100612800Y-103400000D01*
X102025600Y-51607633D02*
X103425600Y-53007633D01*
X102025600Y-100607633D02*
X103425600Y-102007633D01*
X103325600Y-53000000D02*
X104725600Y-51600000D01*
X103325600Y-102000000D02*
X104725600Y-100600000D01*
X103412800Y-53000000D02*
X102012800Y-54400000D01*
X103412800Y-102000000D02*
X102012800Y-103400000D01*
X104712800Y-54392367D02*
X103312800Y-52992367D01*
X104712800Y-103392367D02*
X103312800Y-101992367D01*
X104725600Y-51600000D02*
X106125600Y-51600000D01*
X104725600Y-100600000D02*
X106125600Y-100600000D01*
X106125600Y-54400000D02*
X104725600Y-54400000D01*
X106125600Y-103400000D02*
X104725600Y-103400000D01*
X106138400Y-51607633D02*
X107538400Y-53007633D01*
X106138400Y-100607633D02*
X107538400Y-102007633D01*
X107525600Y-53000000D02*
X106125600Y-54400000D01*
X107525600Y-53000000D02*
X108925600Y-51600000D01*
X107525600Y-102000000D02*
X106125600Y-103400000D01*
X107525600Y-102000000D02*
X108925600Y-100600000D01*
X108912800Y-54392367D02*
X107512800Y-52992367D01*
X108912800Y-103392367D02*
X107512800Y-101992367D01*
X108925600Y-51600000D02*
X110325600Y-51600000D01*
X108925600Y-100600000D02*
X110325600Y-100600000D01*
X110325600Y-54400000D02*
X108925600Y-54400000D01*
X110325600Y-103400000D02*
X108925600Y-103400000D01*
X110338400Y-51607633D02*
X111738400Y-53007633D01*
X110338400Y-100607633D02*
X111738400Y-102007633D01*
X111725600Y-53000000D02*
X110325600Y-54400000D01*
X111725600Y-53000000D02*
X113125600Y-51600000D01*
X111725600Y-102000000D02*
X110325600Y-103400000D01*
X111725600Y-102000000D02*
X113125600Y-100600000D01*
X113112800Y-54392367D02*
X111712800Y-52992367D01*
X113112800Y-103392367D02*
X111712800Y-101992367D01*
X113125600Y-51600000D02*
X114525600Y-51600000D01*
X113125600Y-100600000D02*
X114525600Y-100600000D01*
X114525600Y-54400000D02*
X113125600Y-54400000D01*
X114525600Y-103400000D02*
X113125600Y-103400000D01*
X114538400Y-51607633D02*
X115938400Y-53007633D01*
X114538400Y-100607633D02*
X115938400Y-102007633D01*
X115925600Y-53000000D02*
X114525600Y-54400000D01*
X115925600Y-53000000D02*
X117325600Y-51600000D01*
X115925600Y-102000000D02*
X114525600Y-103400000D01*
X115925600Y-102000000D02*
X117325600Y-100600000D01*
X117312800Y-54392367D02*
X115912800Y-52992367D01*
X117312800Y-103392367D02*
X115912800Y-101992367D01*
X117325600Y-51600000D02*
X118725600Y-51600000D01*
X117325600Y-100600000D02*
X118725600Y-100600000D01*
X118725600Y-54400000D02*
X117325600Y-54400000D01*
X118725600Y-103400000D02*
X117325600Y-103400000D01*
X118738400Y-51607633D02*
X120138400Y-53007633D01*
X118738400Y-100607633D02*
X120138400Y-102007633D01*
X120000000Y-53000000D02*
X121400000Y-51600000D01*
X120000000Y-102000000D02*
X121400000Y-100600000D01*
X120125600Y-53000000D02*
X118725600Y-54400000D01*
X120125600Y-102000000D02*
X118725600Y-103400000D01*
X121387200Y-54392367D02*
X119987200Y-52992367D01*
X121387200Y-103392367D02*
X119987200Y-101992367D01*
X121400000Y-51600000D02*
X122800000Y-51600000D01*
X121400000Y-100600000D02*
X122800000Y-100600000D01*
X122800000Y-54400000D02*
X121400000Y-54400000D01*
X122800000Y-103400000D02*
X121400000Y-103400000D01*
X122812800Y-51607633D02*
X124212800Y-53007633D01*
X122812800Y-100607633D02*
X124212800Y-102007633D01*
X124200000Y-53000000D02*
X122800000Y-54400000D01*
X124200000Y-53000000D02*
X125600000Y-51600000D01*
X124200000Y-102000000D02*
X122800000Y-103400000D01*
X124200000Y-102000000D02*
X125600000Y-100600000D01*
X125587200Y-54392367D02*
X124187200Y-52992367D01*
X125587200Y-103392367D02*
X124187200Y-101992367D01*
X125600000Y-51600000D02*
X127000000Y-51600000D01*
X125600000Y-100600000D02*
X127000000Y-100600000D01*
X127000000Y-54400000D02*
X125600000Y-54400000D01*
X127000000Y-103400000D02*
X125600000Y-103400000D01*
X127012800Y-51607633D02*
X128412800Y-53007633D01*
X127012800Y-100607633D02*
X128412800Y-102007633D01*
X128400000Y-53000000D02*
X127000000Y-54400000D01*
X128400000Y-53000000D02*
X129800000Y-51600000D01*
X128400000Y-102000000D02*
X127000000Y-103400000D01*
X128400000Y-102000000D02*
X129800000Y-100600000D01*
X129787200Y-54392367D02*
X128387200Y-52992367D01*
X129787200Y-103392367D02*
X128387200Y-101992367D01*
X129800000Y-51600000D02*
X131200000Y-51600000D01*
X129800000Y-100600000D02*
X131200000Y-100600000D01*
X131200000Y-54400000D02*
X129800000Y-54400000D01*
X131200000Y-103400000D02*
X129800000Y-103400000D01*
X131212800Y-51607633D02*
X132612800Y-53007633D01*
X131212800Y-100607633D02*
X132612800Y-102007633D01*
X132600000Y-53000000D02*
X131200000Y-54400000D01*
X132600000Y-102000000D02*
X131200000Y-103400000D01*
X135700000Y-61500000D02*
X135700000Y-60100000D01*
X135700000Y-65700000D02*
X135700000Y-64300000D01*
X135700000Y-69900000D02*
X135700000Y-68500000D01*
X135700000Y-73974400D02*
X135700000Y-72574400D01*
X135700000Y-78174400D02*
X135700000Y-76774400D01*
X135700000Y-82300000D02*
X135700000Y-80900000D01*
X135700000Y-86500000D02*
X135700000Y-85100000D01*
X135700000Y-90700000D02*
X135700000Y-89300000D01*
X135700000Y-94900000D02*
X135700000Y-93500000D01*
X135707633Y-60087200D02*
X137107633Y-58687200D01*
X135707633Y-64287200D02*
X137107633Y-62887200D01*
X135707633Y-68487200D02*
X137107633Y-67087200D01*
X135707633Y-72561600D02*
X137107633Y-71161600D01*
X135707633Y-76761600D02*
X137107633Y-75361600D01*
X135707633Y-80887200D02*
X137107633Y-79487200D01*
X135707633Y-85087200D02*
X137107633Y-83687200D01*
X135707633Y-89287200D02*
X137107633Y-87887200D01*
X135707633Y-93487200D02*
X137107633Y-92087200D01*
X137100000Y-58700000D02*
X138500000Y-60100000D01*
X137100000Y-62900000D02*
X135700000Y-61500000D01*
X137100000Y-62900000D02*
X138500000Y-64300000D01*
X137100000Y-67100000D02*
X135700000Y-65700000D01*
X137100000Y-67100000D02*
X138500000Y-68500000D01*
X137100000Y-71174400D02*
X138500000Y-72574400D01*
X137100000Y-71300000D02*
X135700000Y-69900000D01*
X137100000Y-75374400D02*
X135700000Y-73974400D01*
X137100000Y-75374400D02*
X138500000Y-76774400D01*
X137100000Y-79500000D02*
X138500000Y-80900000D01*
X137100000Y-79574400D02*
X135700000Y-78174400D01*
X137100000Y-83700000D02*
X135700000Y-82300000D01*
X137100000Y-83700000D02*
X138500000Y-85100000D01*
X137100000Y-87900000D02*
X135700000Y-86500000D01*
X137100000Y-87900000D02*
X138500000Y-89300000D01*
X137100000Y-92100000D02*
X135700000Y-90700000D01*
X137100000Y-92100000D02*
X138500000Y-93500000D01*
X137100000Y-96300000D02*
X135700000Y-94900000D01*
X138492367Y-61512800D02*
X137092367Y-62912800D01*
X138492367Y-65712800D02*
X137092367Y-67112800D01*
X138492367Y-69912800D02*
X137092367Y-71312800D01*
X138492367Y-73987200D02*
X137092367Y-75387200D01*
X138492367Y-78187200D02*
X137092367Y-79587200D01*
X138492367Y-82312800D02*
X137092367Y-83712800D01*
X138492367Y-86512800D02*
X137092367Y-87912800D01*
X138492367Y-90712800D02*
X137092367Y-92112800D01*
X138492367Y-94912800D02*
X137092367Y-96312800D01*
X138500000Y-60100000D02*
X138500000Y-61500000D01*
X138500000Y-64300000D02*
X138500000Y-65700000D01*
X138500000Y-68500000D02*
X138500000Y-69900000D01*
X138500000Y-72574400D02*
X138500000Y-73974400D01*
X138500000Y-76774400D02*
X138500000Y-78174400D01*
X138500000Y-80900000D02*
X138500000Y-82300000D01*
X138500000Y-85100000D02*
X138500000Y-86500000D01*
X138500000Y-89300000D02*
X138500000Y-90700000D01*
X138500000Y-93500000D02*
X138500000Y-94900000D01*
D12*
X111374060Y-86020600D02*
X112659774Y-84092028D01*
X109802631Y-86020600D02*
X111088345Y-84092028D01*
X108231202Y-86020600D02*
X109516916Y-84092028D01*
X106659773Y-86020600D02*
X107945487Y-84092028D01*
X105088344Y-86020600D02*
X106374058Y-84092028D01*
X103516915Y-86020600D02*
X104802629Y-84092028D01*
X111624060Y-89020600D02*
X112909774Y-87092028D01*
X110052631Y-89020600D02*
X111338345Y-87092028D01*
X108481202Y-89020600D02*
X109766916Y-87092028D01*
X106909773Y-89020600D02*
X108195487Y-87092028D01*
X105338344Y-89020600D02*
X106624058Y-87092028D01*
X103766915Y-89020600D02*
X105052629Y-87092028D01*
%TO.C,D2*%
D13*
X96476000Y-68000000D02*
G75*
G02*
X93428000Y-68000000I-1524000J0D01*
G01*
X93428000Y-68000000D02*
G75*
G02*
X96476000Y-68000000I1524000J0D01*
G01*
X95393891Y-66534622D02*
X95815923Y-66743641D01*
X96188936Y-67097564D01*
X96423647Y-67591032D01*
X96489436Y-68137084D01*
X96303359Y-68699378D01*
X95813454Y-69247917D01*
X95480250Y-69425045D01*
X95068121Y-69498872D01*
X94585731Y-69474397D01*
X94242622Y-69368679D01*
X94101737Y-69252698D01*
X93817289Y-69065378D01*
X93617840Y-68730833D01*
X93450808Y-68080141D01*
X93488943Y-67594090D01*
X93751981Y-67018494D01*
X94049564Y-66763064D01*
X94575353Y-66512372D01*
X94936500Y-66466846D01*
X95393891Y-66534622D01*
G36*
X95393891Y-66534622D02*
G01*
X95815923Y-66743641D01*
X96188936Y-67097564D01*
X96423647Y-67591032D01*
X96489436Y-68137084D01*
X96303359Y-68699378D01*
X95813454Y-69247917D01*
X95480250Y-69425045D01*
X95068121Y-69498872D01*
X94585731Y-69474397D01*
X94242622Y-69368679D01*
X94101737Y-69252698D01*
X93817289Y-69065378D01*
X93617840Y-68730833D01*
X93450808Y-68080141D01*
X93488943Y-67594090D01*
X93751981Y-67018494D01*
X94049564Y-66763064D01*
X94575353Y-66512372D01*
X94936500Y-66466846D01*
X95393891Y-66534622D01*
G37*
%TO.C,D1*%
X96524000Y-86000000D02*
G75*
G02*
X93476000Y-86000000I-1524000J0D01*
G01*
X93476000Y-86000000D02*
G75*
G02*
X96524000Y-86000000I1524000J0D01*
G01*
X95441891Y-84534622D02*
X95863923Y-84743641D01*
X96236936Y-85097564D01*
X96471647Y-85591032D01*
X96537436Y-86137084D01*
X96351359Y-86699378D01*
X95861454Y-87247917D01*
X95528250Y-87425045D01*
X95116121Y-87498872D01*
X94633731Y-87474397D01*
X94290622Y-87368679D01*
X94149737Y-87252698D01*
X93865289Y-87065378D01*
X93665840Y-86730833D01*
X93498808Y-86080141D01*
X93536943Y-85594090D01*
X93799981Y-85018494D01*
X94097564Y-84763064D01*
X94623353Y-84512372D01*
X94984500Y-84466846D01*
X95441891Y-84534622D01*
G36*
X95441891Y-84534622D02*
G01*
X95863923Y-84743641D01*
X96236936Y-85097564D01*
X96471647Y-85591032D01*
X96537436Y-86137084D01*
X96351359Y-86699378D01*
X95861454Y-87247917D01*
X95528250Y-87425045D01*
X95116121Y-87498872D01*
X94633731Y-87474397D01*
X94290622Y-87368679D01*
X94149737Y-87252698D01*
X93865289Y-87065378D01*
X93665840Y-86730833D01*
X93498808Y-86080141D01*
X93536943Y-85594090D01*
X93799981Y-85018494D01*
X94097564Y-84763064D01*
X94623353Y-84512372D01*
X94984500Y-84466846D01*
X95441891Y-84534622D01*
G37*
%TD*%
D14*
%TO.C,C3*%
X83000000Y-88000000D03*
D15*
X81750000Y-90165064D03*
%TD*%
D16*
%TO.C,R1*%
X108633975Y-58366025D03*
X109633975Y-56633975D03*
%TD*%
D17*
%TO.C,D2*%
X93428000Y-70639645D03*
X96476000Y-65360355D03*
%TD*%
D18*
%TO.C,C2*%
X73267949Y-66000000D03*
D19*
X74267949Y-64267949D03*
%TD*%
D17*
%TO.C,D1*%
X93476000Y-88639645D03*
X96524000Y-83360355D03*
%TD*%
D20*
%TO.C,H1*%
X54600000Y-100500000D03*
%TD*%
%TO.C,H2*%
X135400000Y-100500000D03*
%TD*%
D16*
%TO.C,R3*%
X90000000Y-99366025D03*
X91000000Y-97633975D03*
%TD*%
D20*
%TO.C,H3*%
X55012101Y-55245159D03*
%TD*%
D21*
%TO.C,J1*%
X132000000Y-90000000D03*
%TD*%
D15*
%TO.C,C1*%
X119000000Y-67000000D03*
X120250000Y-64834936D03*
%TD*%
D16*
%TO.C,R2*%
X115500000Y-91866025D03*
X116500000Y-90133975D03*
%TD*%
D21*
%TO.C,J2*%
X58000000Y-66000000D03*
%TD*%
D22*
%TO.C,U1*%
X83225444Y-67381826D03*
X84325296Y-68016826D03*
X85425148Y-68651826D03*
X86525000Y-69286826D03*
X89000000Y-65000000D03*
X87900148Y-64365000D03*
X86800296Y-63730000D03*
X85700444Y-63095000D03*
%TD*%
D20*
%TO.C,H4*%
X135650000Y-54550000D03*
%TD*%
D23*
%TO.C,BT2*%
X75125000Y-77060091D03*
D24*
X54325000Y-77060091D03*
%TD*%
D25*
%TO.C,LS1*%
X127500000Y-59250000D03*
X132000000Y-59250000D03*
D26*
X127500000Y-71250000D03*
D24*
X132000000Y-71250000D03*
%TD*%
M02*
