%TF.GenerationSoftware,KiCad,Pcbnew,10.0.1*%
%TF.CreationDate,2026-06-25T17:46:55-04:00*%
%TF.ProjectId,hackician,6861636b-6963-4696-916e-2e6b69636164,rev?*%
%TF.SameCoordinates,Original*%
%TF.FileFunction,Copper,L1,Top*%
%TF.FilePolarity,Positive*%
%FSLAX46Y46*%
G04 Gerber Fmt 4.6, Leading zero omitted, Abs format (unit mm)*
G04 Created by KiCad (PCBNEW 10.0.1) date 2026-06-25 17:46:55*
%MOMM*%
%LPD*%
G01*
G04 APERTURE LIST*
G04 Aperture macros list*
%AMRoundRect*
0 Rectangle with rounded corners*
0 $1 Rounding radius*
0 $2 $3 $4 $5 $6 $7 $8 $9 X,Y pos of 4 corners*
0 Add a 4 corners polygon primitive as box body*
4,1,4,$2,$3,$4,$5,$6,$7,$8,$9,$2,$3,0*
0 Add four circle primitives for the rounded corners*
1,1,$1+$1,$2,$3*
1,1,$1+$1,$4,$5*
1,1,$1+$1,$6,$7*
1,1,$1+$1,$8,$9*
0 Add four rect primitives between the rounded corners*
20,1,$1+$1,$2,$3,$4,$5,0*
20,1,$1+$1,$4,$5,$6,$7,0*
20,1,$1+$1,$6,$7,$8,$9,0*
20,1,$1+$1,$8,$9,$2,$3,0*%
G04 Aperture macros list end*
%TA.AperFunction,Conductor*%
%ADD10C,0.200000*%
%TD*%
%TA.AperFunction,Conductor*%
%ADD11C,0.000000*%
%TD*%
%TA.AperFunction,ComponentPad*%
%ADD12RoundRect,0.250000X-0.201314X0.751314X-0.751314X-0.201314X0.201314X-0.751314X0.751314X0.201314X0*%
%TD*%
%TA.AperFunction,ComponentPad*%
%ADD13C,1.600000*%
%TD*%
%TA.AperFunction,SMDPad,CuDef*%
%ADD14RoundRect,0.250000X0.214711X-0.528109X0.564711X0.078109X-0.214711X0.528109X-0.564711X-0.078109X0*%
%TD*%
%TA.AperFunction,ComponentPad*%
%ADD15RoundRect,0.381000X-0.051044X-0.850411X0.710956X0.469411X0.051044X0.850411X-0.710956X-0.469411X0*%
%TD*%
%TA.AperFunction,ComponentPad*%
%ADD16RoundRect,0.250000X0.128109X-0.478109X0.478109X0.128109X-0.128109X0.478109X-0.478109X-0.128109X0*%
%TD*%
%TA.AperFunction,ComponentPad*%
%ADD17C,1.200000*%
%TD*%
%TA.AperFunction,SMDPad,CuDef*%
%ADD18C,4.000000*%
%TD*%
%TA.AperFunction,SMDPad,CuDef*%
%ADD19RoundRect,0.150000X-0.282596X-0.789471X0.542404X0.639471X0.282596X0.789471X-0.542404X-0.639471X0*%
%TD*%
%TA.AperFunction,ComponentPad*%
%ADD20R,2.000000X2.000000*%
%TD*%
%TA.AperFunction,ComponentPad*%
%ADD21C,2.000000*%
%TD*%
%TA.AperFunction,ComponentPad*%
%ADD22RoundRect,0.250000X-0.750000X-0.750000X0.750000X-0.750000X0.750000X0.750000X-0.750000X0.750000X0*%
%TD*%
%TA.AperFunction,ViaPad*%
%ADD23C,0.600000*%
%TD*%
%TA.AperFunction,Conductor*%
%ADD24C,0.500000*%
%TD*%
G04 APERTURE END LIST*
D10*
%TO.N,Net-(J1-Pin_1)*%
X135000000Y-89250000D02*
X134000000Y-95000000D01*
X125250000Y-91250000D01*
X132500000Y-84000000D01*
X135000000Y-89250000D01*
%TA.AperFunction,Conductor*%
G36*
X135000000Y-89250000D02*
G01*
X134000000Y-95000000D01*
X125250000Y-91250000D01*
X132500000Y-84000000D01*
X135000000Y-89250000D01*
G37*
%TD.AperFunction*%
%TO.N,Net-(J2-Pin_1)*%
X56750000Y-63250000D02*
X62500000Y-62750000D01*
X60750000Y-65250000D01*
X61000000Y-67250000D01*
X58000000Y-69500000D01*
X54750000Y-68250000D01*
X55000000Y-63250000D01*
X54250000Y-62000000D01*
X56750000Y-63250000D01*
%TA.AperFunction,Conductor*%
G36*
X56750000Y-63250000D02*
G01*
X62500000Y-62750000D01*
X60750000Y-65250000D01*
X61000000Y-67250000D01*
X58000000Y-69500000D01*
X54750000Y-68250000D01*
X55000000Y-63250000D01*
X54250000Y-62000000D01*
X56750000Y-63250000D01*
G37*
%TD.AperFunction*%
D11*
%TA.AperFunction,Conductor*%
%TO.N,GND*%
G36*
X101250000Y-72500000D02*
G01*
X101406718Y-72503076D01*
X101554216Y-72507910D01*
X101681788Y-72514355D01*
X101778726Y-72522269D01*
X102029351Y-72555617D01*
X102275602Y-72599301D01*
X102517072Y-72653114D01*
X102753357Y-72716848D01*
X102984051Y-72790297D01*
X103208747Y-72873255D01*
X103427041Y-72965515D01*
X103638527Y-73066869D01*
X103842798Y-73177113D01*
X104039450Y-73296037D01*
X104228076Y-73423437D01*
X104408272Y-73559105D01*
X104579630Y-73702834D01*
X104741747Y-73854418D01*
X104894215Y-74013651D01*
X105036630Y-74180324D01*
X105142996Y-74317990D01*
X105245034Y-74461527D01*
X105342591Y-74610562D01*
X105435516Y-74764723D01*
X105523656Y-74923638D01*
X105606858Y-75086936D01*
X105684970Y-75254243D01*
X105757839Y-75425189D01*
X105825314Y-75599400D01*
X105887241Y-75776506D01*
X105943467Y-75956133D01*
X105993842Y-76137910D01*
X106038212Y-76321465D01*
X106076424Y-76506425D01*
X106108327Y-76692419D01*
X106133768Y-76879075D01*
X106177865Y-77249491D01*
X106185390Y-77319537D01*
X106190764Y-77393799D01*
X106193989Y-77470873D01*
X106195064Y-77549352D01*
X106193989Y-77627831D01*
X106190764Y-77704905D01*
X106185390Y-77779167D01*
X106177865Y-77849213D01*
X106133768Y-78210811D01*
X106105952Y-78402241D01*
X106070883Y-78591462D01*
X106028696Y-78778319D01*
X105979527Y-78962661D01*
X105923513Y-79144334D01*
X105860788Y-79323184D01*
X105791490Y-79499060D01*
X105715754Y-79671807D01*
X105545512Y-80007303D01*
X105351149Y-80328449D01*
X105133755Y-80634019D01*
X104894416Y-80922790D01*
X104634221Y-81193535D01*
X104354256Y-81445032D01*
X104055611Y-81676054D01*
X103739372Y-81885377D01*
X103406628Y-82071776D01*
X103234406Y-82155997D01*
X103058466Y-82234027D01*
X102878944Y-82305714D01*
X102695975Y-82370905D01*
X102509695Y-82429446D01*
X102320241Y-82481185D01*
X102153791Y-82521407D01*
X102003319Y-82553918D01*
X101862315Y-82579443D01*
X101724266Y-82598705D01*
X101582662Y-82612427D01*
X101430992Y-82621332D01*
X101262744Y-82626145D01*
X101071406Y-82627589D01*
X100943673Y-82627237D01*
X100832703Y-82626100D01*
X100736079Y-82624054D01*
X100651381Y-82620974D01*
X100576192Y-82616736D01*
X100508093Y-82611217D01*
X100444665Y-82604293D01*
X100383490Y-82595838D01*
X100153158Y-82558576D01*
X99933864Y-82515030D01*
X99827465Y-82490642D01*
X99722755Y-82464374D01*
X99619379Y-82436120D01*
X99516980Y-82405779D01*
X99415200Y-82373247D01*
X99313684Y-82338421D01*
X99212076Y-82301197D01*
X99110017Y-82261471D01*
X98903125Y-82174103D01*
X98690156Y-82075491D01*
X98534914Y-81997856D01*
X98383847Y-81917430D01*
X98234681Y-81832746D01*
X98085143Y-81742336D01*
X97932959Y-81644733D01*
X97775856Y-81538469D01*
X97611560Y-81422077D01*
X97437796Y-81294088D01*
X97232471Y-81137402D01*
X97031798Y-80977222D01*
X96829677Y-80808071D01*
X96620012Y-80624471D01*
X96396705Y-80420945D01*
X96153657Y-80192015D01*
X95884771Y-79932204D01*
X95583948Y-79636032D01*
X95420424Y-79473682D01*
X95283150Y-79338679D01*
X95170268Y-79229267D01*
X95122393Y-79183607D01*
X95079917Y-79143687D01*
X95042609Y-79109285D01*
X95010237Y-79080183D01*
X94982566Y-79056161D01*
X94959366Y-79036999D01*
X94940403Y-79022478D01*
X94925446Y-79012377D01*
X94919396Y-79008916D01*
X94914260Y-79006478D01*
X94910009Y-79005035D01*
X94906615Y-79004560D01*
X94899535Y-79006202D01*
X94889420Y-79011247D01*
X94876086Y-79019873D01*
X94859348Y-79032259D01*
X94814930Y-79069021D01*
X94754700Y-79122961D01*
X94677189Y-79195504D01*
X94580930Y-79288078D01*
X94326296Y-79539018D01*
X93928208Y-79929196D01*
X93759137Y-80092008D01*
X93604865Y-80238180D01*
X93461508Y-80371371D01*
X93325179Y-80495239D01*
X93191991Y-80613444D01*
X93058060Y-80729643D01*
X92879851Y-80879624D01*
X92703625Y-81022711D01*
X92529212Y-81158997D01*
X92356445Y-81288576D01*
X92185156Y-81411540D01*
X92015177Y-81527983D01*
X91846340Y-81637997D01*
X91678478Y-81741675D01*
X91511421Y-81839111D01*
X91345003Y-81930398D01*
X91179055Y-82015628D01*
X91013409Y-82094894D01*
X90847898Y-82168290D01*
X90682353Y-82235909D01*
X90516606Y-82297843D01*
X90350490Y-82354186D01*
X90043499Y-82445023D01*
X89736722Y-82519137D01*
X89430705Y-82576591D01*
X89125993Y-82617446D01*
X88823131Y-82641765D01*
X88522664Y-82649610D01*
X88225137Y-82641042D01*
X87931096Y-82616123D01*
X87641085Y-82574916D01*
X87355651Y-82517483D01*
X87075338Y-82443885D01*
X86800691Y-82354185D01*
X86532256Y-82248445D01*
X86270577Y-82126726D01*
X86016200Y-81989091D01*
X85769671Y-81835602D01*
X85631335Y-81739731D01*
X85496261Y-81638153D01*
X85364649Y-81531113D01*
X85236700Y-81418856D01*
X85112618Y-81301627D01*
X84992602Y-81179673D01*
X84876854Y-81053239D01*
X84765577Y-80922569D01*
X84658971Y-80787910D01*
X84557238Y-80649507D01*
X84460580Y-80507606D01*
X84369198Y-80362452D01*
X84283293Y-80214290D01*
X84203068Y-80063366D01*
X84128724Y-79909925D01*
X84060462Y-79754213D01*
X83989094Y-79574093D01*
X83923430Y-79386801D01*
X83863885Y-79194092D01*
X83810872Y-78997725D01*
X83764804Y-78799457D01*
X83726095Y-78601043D01*
X83695158Y-78404242D01*
X83672407Y-78210811D01*
X83652563Y-78029791D01*
X83643137Y-77945152D01*
X83635365Y-77879199D01*
X83624837Y-77786126D01*
X83618608Y-77693880D01*
X83617009Y-77597170D01*
X83618734Y-77542555D01*
X85772616Y-77542555D01*
X85773474Y-77639700D01*
X85777474Y-77738172D01*
X85784553Y-77837665D01*
X85794651Y-77937871D01*
X85807704Y-78038483D01*
X85823652Y-78139193D01*
X85842431Y-78239694D01*
X85863980Y-78339678D01*
X85888237Y-78438838D01*
X85915140Y-78536866D01*
X85944626Y-78633455D01*
X85976635Y-78728297D01*
X86011103Y-78821085D01*
X86047969Y-78911512D01*
X86087170Y-78999269D01*
X86181852Y-79184205D01*
X86287672Y-79359157D01*
X86404194Y-79523857D01*
X86530982Y-79678035D01*
X86667598Y-79821424D01*
X86813607Y-79953753D01*
X86968571Y-80074755D01*
X87132054Y-80184161D01*
X87303620Y-80281702D01*
X87482830Y-80367109D01*
X87669250Y-80440114D01*
X87862442Y-80500448D01*
X88061969Y-80547843D01*
X88267396Y-80582028D01*
X88478284Y-80602737D01*
X88694198Y-80609699D01*
X88902223Y-80603614D01*
X89109808Y-80585246D01*
X89317300Y-80554424D01*
X89525045Y-80510977D01*
X89733390Y-80454735D01*
X89942680Y-80385527D01*
X90153262Y-80303183D01*
X90365483Y-80207533D01*
X90579688Y-80098405D01*
X90796223Y-79975630D01*
X91015435Y-79839036D01*
X91237671Y-79688454D01*
X91463276Y-79523712D01*
X91692596Y-79344640D01*
X91925978Y-79151068D01*
X92163768Y-78942825D01*
X92299095Y-78817220D01*
X92486036Y-78638140D01*
X92930839Y-78202653D01*
X93330333Y-77802553D01*
X93460636Y-77667709D01*
X93499249Y-77625676D01*
X93516671Y-77604033D01*
X93518222Y-77600978D01*
X93519568Y-77597783D01*
X93520713Y-77594475D01*
X93521659Y-77591079D01*
X93522409Y-77587621D01*
X93522965Y-77584127D01*
X93523330Y-77580622D01*
X93523484Y-77577575D01*
X96285976Y-77577575D01*
X96297041Y-77592820D01*
X96326949Y-77626033D01*
X96435494Y-77738695D01*
X96792874Y-78095276D01*
X97233268Y-78524617D01*
X97631824Y-78904018D01*
X97795421Y-79053880D01*
X97955607Y-79195970D01*
X98112569Y-79330411D01*
X98266493Y-79457329D01*
X98417563Y-79576846D01*
X98565968Y-79689087D01*
X98711892Y-79794176D01*
X98855521Y-79892237D01*
X98997042Y-79983395D01*
X99136641Y-80067772D01*
X99274503Y-80145493D01*
X99410815Y-80216683D01*
X99545763Y-80281464D01*
X99679533Y-80339962D01*
X99812311Y-80392300D01*
X99944282Y-80438602D01*
X100089848Y-80484570D01*
X100218484Y-80521257D01*
X100278398Y-80536423D01*
X100336412Y-80549634D01*
X100393306Y-80561010D01*
X100449856Y-80570673D01*
X100506840Y-80578745D01*
X100565036Y-80585346D01*
X100625221Y-80590598D01*
X100688174Y-80594623D01*
X100825492Y-80599478D01*
X100983212Y-80600880D01*
X101136246Y-80599519D01*
X101270533Y-80594954D01*
X101332176Y-80591244D01*
X101390970Y-80586462D01*
X101447526Y-80580517D01*
X101502457Y-80573319D01*
X101556375Y-80564777D01*
X101609892Y-80554802D01*
X101663622Y-80543302D01*
X101718176Y-80530187D01*
X101774166Y-80515366D01*
X101832205Y-80498750D01*
X101956880Y-80459769D01*
X102163806Y-80383173D01*
X102362877Y-80292079D01*
X102553556Y-80187161D01*
X102735306Y-80069095D01*
X102907588Y-79938554D01*
X103069866Y-79796212D01*
X103221601Y-79642745D01*
X103362258Y-79478826D01*
X103491297Y-79305130D01*
X103608183Y-79122331D01*
X103712376Y-78931104D01*
X103803340Y-78732122D01*
X103880538Y-78526061D01*
X103943432Y-78313595D01*
X103991484Y-78095397D01*
X104024158Y-77872144D01*
X104034575Y-77750486D01*
X104039447Y-77625992D01*
X104038893Y-77499213D01*
X104033032Y-77370703D01*
X104021983Y-77241015D01*
X104005864Y-77110702D01*
X103984795Y-76980316D01*
X103958893Y-76850411D01*
X103928279Y-76721539D01*
X103893071Y-76594254D01*
X103853388Y-76469109D01*
X103809349Y-76346655D01*
X103761072Y-76227447D01*
X103708676Y-76112037D01*
X103652281Y-76000979D01*
X103592004Y-75894824D01*
X103503666Y-75757259D01*
X103408760Y-75626417D01*
X103307456Y-75502406D01*
X103199925Y-75385336D01*
X103086338Y-75275314D01*
X102966865Y-75172450D01*
X102841676Y-75076851D01*
X102710943Y-74988626D01*
X102574835Y-74907885D01*
X102433523Y-74834734D01*
X102287178Y-74769283D01*
X102135970Y-74711641D01*
X101980069Y-74661915D01*
X101819648Y-74620215D01*
X101654874Y-74586649D01*
X101485921Y-74561325D01*
X101400723Y-74552881D01*
X101301429Y-74547351D01*
X101192295Y-74544674D01*
X101077580Y-74544788D01*
X100961542Y-74547630D01*
X100848440Y-74553139D01*
X100742530Y-74561252D01*
X100648073Y-74571907D01*
X100479960Y-74598325D01*
X100312142Y-74632682D01*
X100144375Y-74675107D01*
X99976418Y-74725724D01*
X99808026Y-74784661D01*
X99638957Y-74852045D01*
X99468968Y-74928002D01*
X99297816Y-75012659D01*
X99125259Y-75106142D01*
X98951054Y-75208578D01*
X98774956Y-75320094D01*
X98596725Y-75440816D01*
X98416117Y-75570870D01*
X98232888Y-75710384D01*
X98046797Y-75859484D01*
X97857600Y-76018296D01*
X97640746Y-76210457D01*
X97391769Y-76441023D01*
X97129646Y-76691185D01*
X96873351Y-76942133D01*
X96641862Y-77175056D01*
X96454152Y-77371144D01*
X96382645Y-77449497D01*
X96329199Y-77511587D01*
X96296185Y-77555063D01*
X96288082Y-77569087D01*
X96285976Y-77577575D01*
X93523484Y-77577575D01*
X93523506Y-77577133D01*
X93523496Y-77573686D01*
X93523303Y-77570305D01*
X93522928Y-77567018D01*
X93522376Y-77563849D01*
X93521647Y-77560825D01*
X93520746Y-77557972D01*
X93519674Y-77555315D01*
X93518434Y-77552880D01*
X93458214Y-77490217D01*
X93309524Y-77342949D01*
X92851243Y-76896052D01*
X92352614Y-76415089D01*
X92022657Y-76102963D01*
X91831386Y-75932095D01*
X91643676Y-75771945D01*
X91459242Y-75622357D01*
X91277800Y-75483177D01*
X91099066Y-75354249D01*
X90922755Y-75235419D01*
X90748584Y-75126532D01*
X90576268Y-75027432D01*
X90405523Y-74937964D01*
X90236065Y-74857974D01*
X90067609Y-74787307D01*
X89899872Y-74725807D01*
X89732568Y-74673319D01*
X89565415Y-74629689D01*
X89398127Y-74594761D01*
X89230421Y-74568380D01*
X89162086Y-74560254D01*
X89091614Y-74553724D01*
X89019391Y-74548776D01*
X88945800Y-74545394D01*
X88796059Y-74543265D01*
X88645471Y-74547213D01*
X88497115Y-74557114D01*
X88424736Y-74564259D01*
X88354071Y-74572845D01*
X88285504Y-74582857D01*
X88219419Y-74594280D01*
X88156203Y-74607098D01*
X88096240Y-74621297D01*
X88028176Y-74639300D01*
X87959105Y-74659492D01*
X87889299Y-74681746D01*
X87819034Y-74705936D01*
X87748582Y-74731934D01*
X87678219Y-74759614D01*
X87608217Y-74788849D01*
X87538851Y-74819514D01*
X87470394Y-74851480D01*
X87403121Y-74884622D01*
X87337305Y-74918814D01*
X87273220Y-74953927D01*
X87211141Y-74989837D01*
X87151340Y-75026415D01*
X87094092Y-75063537D01*
X87039670Y-75101074D01*
X86998089Y-75131804D01*
X86954325Y-75166166D01*
X86908799Y-75203742D01*
X86861931Y-75244115D01*
X86814144Y-75286864D01*
X86765858Y-75331572D01*
X86669474Y-75425189D01*
X86576150Y-75521617D01*
X86531688Y-75569839D01*
X86489254Y-75617508D01*
X86449270Y-75664205D01*
X86412157Y-75709513D01*
X86378335Y-75753011D01*
X86348226Y-75794283D01*
X86285105Y-75886677D01*
X86225419Y-75981200D01*
X86169210Y-76077707D01*
X86116523Y-76176054D01*
X86067401Y-76276096D01*
X86021889Y-76377689D01*
X85980031Y-76480687D01*
X85941870Y-76584946D01*
X85907451Y-76690321D01*
X85876816Y-76796667D01*
X85850011Y-76903841D01*
X85827080Y-77011696D01*
X85808065Y-77120090D01*
X85793011Y-77228875D01*
X85781962Y-77337909D01*
X85774962Y-77447046D01*
X85772616Y-77542555D01*
X83618734Y-77542555D01*
X83620372Y-77490703D01*
X83629026Y-77369187D01*
X83643302Y-77227332D01*
X83663532Y-77059845D01*
X83690045Y-76861435D01*
X83714126Y-76703329D01*
X83743369Y-76546523D01*
X83777769Y-76391034D01*
X83817321Y-76236881D01*
X83862020Y-76084082D01*
X83911861Y-75932655D01*
X83966839Y-75782618D01*
X84026948Y-75633989D01*
X84092184Y-75486787D01*
X84162540Y-75341029D01*
X84238013Y-75196733D01*
X84318596Y-75053918D01*
X84404285Y-74912601D01*
X84495075Y-74772802D01*
X84590959Y-74634537D01*
X84691934Y-74497824D01*
X84726929Y-74453177D01*
X84767916Y-74403739D01*
X84864878Y-74293489D01*
X84976847Y-74173069D01*
X85097849Y-74048474D01*
X85221911Y-73925697D01*
X85343057Y-73810735D01*
X85455316Y-73709580D01*
X85506245Y-73666054D01*
X85552712Y-73628227D01*
X85686905Y-73525764D01*
X85823572Y-73428060D01*
X85962710Y-73335121D01*
X86104313Y-73246952D01*
X86248376Y-73163557D01*
X86394893Y-73084942D01*
X86543860Y-73011113D01*
X86695271Y-72942074D01*
X86849122Y-72877831D01*
X87005406Y-72818388D01*
X87164119Y-72763752D01*
X87325255Y-72713926D01*
X87488810Y-72668917D01*
X87654779Y-72628729D01*
X87823155Y-72593368D01*
X87993934Y-72562838D01*
X88066278Y-72551548D01*
X88134467Y-72542636D01*
X88203441Y-72535832D01*
X88278141Y-72530867D01*
X88363507Y-72527474D01*
X88464479Y-72525383D01*
X88733004Y-72524032D01*
X88852022Y-72523857D01*
X88961510Y-72524611D01*
X89061201Y-72526234D01*
X89150825Y-72528663D01*
X89230114Y-72531836D01*
X89298799Y-72535691D01*
X89356611Y-72540166D01*
X89403282Y-72545199D01*
X89654173Y-72586181D01*
X89900716Y-72637328D01*
X90143729Y-72699089D01*
X90384031Y-72771914D01*
X90622443Y-72856253D01*
X90859782Y-72952554D01*
X91096868Y-73061269D01*
X91334520Y-73182845D01*
X91573556Y-73317733D01*
X91814797Y-73466383D01*
X92059061Y-73629244D01*
X92307167Y-73806766D01*
X92559934Y-73999397D01*
X92818181Y-74207589D01*
X93082728Y-74431789D01*
X93354393Y-74672449D01*
X93503386Y-74811273D01*
X93719518Y-75018392D01*
X93974014Y-75265529D01*
X94238102Y-75524407D01*
X94398788Y-75683340D01*
X94534049Y-75815918D01*
X94645580Y-75923732D01*
X94692977Y-75968850D01*
X94735077Y-76008375D01*
X94772092Y-76042504D01*
X94804234Y-76071437D01*
X94831714Y-76095373D01*
X94854745Y-76114511D01*
X94873539Y-76129050D01*
X94888307Y-76139188D01*
X94894248Y-76142670D01*
X94899262Y-76145126D01*
X94903375Y-76146581D01*
X94906615Y-76147060D01*
X94913946Y-76145166D01*
X94924832Y-76139350D01*
X94958098Y-76115145D01*
X95008066Y-76072832D01*
X95076389Y-76010800D01*
X95164721Y-75927435D01*
X95274717Y-75821127D01*
X95566310Y-75533227D01*
X95825519Y-75278483D01*
X96073648Y-75037795D01*
X96282421Y-74838448D01*
X96363212Y-74762804D01*
X96423559Y-74707727D01*
X96712950Y-74455616D01*
X96996813Y-74220298D01*
X97275783Y-74001448D01*
X97550492Y-73798745D01*
X97821573Y-73611866D01*
X98089660Y-73440486D01*
X98355385Y-73284285D01*
X98619381Y-73142937D01*
X98882282Y-73016121D01*
X99144720Y-72903513D01*
X99407328Y-72804791D01*
X99670741Y-72719632D01*
X99935590Y-72647711D01*
X100202508Y-72588708D01*
X100472130Y-72542297D01*
X100745087Y-72508158D01*
X100831607Y-72502759D01*
X100951738Y-72499697D01*
X101094771Y-72498825D01*
X101250000Y-72500000D01*
G37*
%TD.AperFunction*%
%TD*%
D12*
%TO.P,C3,1*%
%TO.N,Net-(U1-OUT)*%
X83000000Y-88000000D03*
D13*
%TO.P,C3,2*%
%TO.N,Net-(C3-Pad2)*%
X81750000Y-90165064D03*
%TD*%
D14*
%TO.P,R1,1*%
%TO.N,VCC*%
X108633975Y-58366025D03*
%TO.P,R1,2*%
%TO.N,Net-(J1-Pin_1)*%
X109633975Y-56633975D03*
%TD*%
D15*
%TO.P,D2,1,K_1*%
%TO.N,GND*%
X93428000Y-70639645D03*
%TO.P,D2,2,A_2*%
%TO.N,Net-(D2-A)*%
X96476000Y-65360355D03*
%TD*%
D16*
%TO.P,C2,1*%
%TO.N,Net-(J2-Pin_1)*%
X73267949Y-66000000D03*
D17*
%TO.P,C2,2*%
%TO.N,GND*%
X74267949Y-64267949D03*
%TD*%
D15*
%TO.P,D1,1,K_1*%
%TO.N,GND*%
X93476000Y-88639645D03*
%TO.P,D1,2,A_2*%
%TO.N,Net-(D1-A)*%
X96524000Y-83360355D03*
%TD*%
D14*
%TO.P,R3,1*%
%TO.N,VCC*%
X90000000Y-99366025D03*
%TO.P,R3,2*%
%TO.N,Net-(D2-A)*%
X91000000Y-97633975D03*
%TD*%
D18*
%TO.P,J1,1,Pin_1_1*%
%TO.N,Net-(J1-Pin_1)*%
X132000000Y-90000000D03*
%TD*%
D13*
%TO.P,C1,1*%
%TO.N,Net-(U1-CV)*%
X119000000Y-67000000D03*
%TO.P,C1,2*%
%TO.N,GND*%
X120250000Y-64834936D03*
%TD*%
D14*
%TO.P,R2,1*%
%TO.N,Net-(U1-OUT)*%
X115500000Y-91866025D03*
%TO.P,R2,2*%
%TO.N,Net-(D1-A)*%
X116500000Y-90133975D03*
%TD*%
D18*
%TO.P,J2,1,Pin_1_1*%
%TO.N,Net-(J2-Pin_1)*%
X58000000Y-66000000D03*
%TD*%
D19*
%TO.P,U1,1,GND_1*%
%TO.N,GND*%
X83225444Y-67381826D03*
%TO.P,U1,2,TR_2*%
%TO.N,Net-(J2-Pin_1)*%
X84325296Y-68016826D03*
%TO.P,U1,3,OUT_3*%
%TO.N,Net-(U1-OUT)*%
X85425148Y-68651826D03*
%TO.P,U1,4,~{RST}_4*%
%TO.N,VCC*%
X86525000Y-69286826D03*
%TO.P,U1,5,CV_5*%
%TO.N,Net-(U1-CV)*%
X89000000Y-65000000D03*
%TO.P,U1,6,THR_6*%
%TO.N,Net-(J2-Pin_1)*%
X87900148Y-64365000D03*
%TO.P,U1,7,DIS_7*%
%TO.N,Net-(J1-Pin_1)*%
X86800296Y-63730000D03*
%TO.P,U1,8,VCC_8*%
%TO.N,VCC*%
X85700444Y-63095000D03*
%TD*%
D20*
%TO.P,BT2,1,+_1*%
%TO.N,VCC*%
X75125000Y-77060091D03*
D21*
%TO.P,BT2,2,-_2*%
%TO.N,GND*%
X54325000Y-77060091D03*
%TD*%
D22*
%TO.P,LS1,1,1_1*%
%TO.N,Net-(C3-Pad2)*%
X127500000Y-71250000D03*
D21*
%TO.P,LS1,2,2_2*%
%TO.N,GND*%
X132000000Y-71250000D03*
%TD*%
D23*
%TO.N,Net-(J1-Pin_1)*%
X92900000Y-58400000D03*
%TO.N,Net-(D2-A)*%
X122000000Y-97500000D03*
%TO.N,VCC*%
X67300000Y-96450000D03*
%TO.N,Net-(U1-OUT)*%
X77500000Y-89250000D03*
X115500000Y-93750000D03*
X80000000Y-88000000D03*
X80000000Y-89250000D03*
X85000000Y-71000000D03*
%TO.N,Net-(C3-Pad2)*%
X114500000Y-70000000D03*
X113750000Y-79250000D03*
X116500000Y-70000000D03*
X109000000Y-79250000D03*
%TO.N,VCC*%
X86500000Y-71000000D03*
X108500000Y-60750000D03*
X78750000Y-77250000D03*
X85700444Y-60750000D03*
%TO.N,Net-(J1-Pin_1)*%
X109750000Y-55000000D03*
X135250000Y-91000000D03*
%TO.N,Net-(J2-Pin_1)*%
X61500000Y-66000000D03*
X84250000Y-70000000D03*
%TO.N,Net-(D1-A)*%
X116396379Y-87199931D03*
%TO.N,Net-(U1-CV)*%
X114500000Y-63000000D03*
X117250000Y-63000000D03*
X93250000Y-65000000D03*
%TD*%
%TO.N,Net-(J1-Pin_1)*%
D24*
X87700000Y-62100000D02*
X86800296Y-62999704D01*
X92900000Y-58400000D02*
X89200000Y-62100000D01*
X89200000Y-62100000D02*
X87700000Y-62100000D01*
X86800296Y-62999704D02*
X86800296Y-63730000D01*
%TO.N,Net-(D2-A)*%
X122000000Y-97500000D02*
X121866025Y-97633975D01*
X121866025Y-97633975D02*
X91000000Y-97633975D01*
%TO.N,VCC*%
X88066025Y-99366025D02*
X85800000Y-97100000D01*
X90000000Y-99366025D02*
X88066025Y-99366025D01*
X85800000Y-97100000D02*
X67950000Y-97100000D01*
X67950000Y-97100000D02*
X67300000Y-96450000D01*
X90000000Y-99366025D02*
X89933975Y-99300000D01*
%TO.N,Net-(D2-A)*%
X91133975Y-97500000D02*
X91000000Y-97633975D01*
%TO.N,Net-(U1-OUT)*%
X80000000Y-89250000D02*
X77500000Y-89250000D01*
X85000000Y-69076974D02*
X85425148Y-68651826D01*
X85000000Y-71000000D02*
X85000000Y-69076974D01*
X115500000Y-91866025D02*
X115500000Y-93750000D01*
X83000000Y-88000000D02*
X80000000Y-88000000D01*
%TO.N,Net-(C3-Pad2)*%
X109000000Y-79250000D02*
X113750000Y-79250000D01*
X114500000Y-70000000D02*
X116500000Y-70000000D01*
%TO.N,VCC*%
X108500000Y-60750000D02*
X108500000Y-58500000D01*
X78750000Y-77250000D02*
X75314909Y-77250000D01*
X86500000Y-71000000D02*
X86500000Y-69311826D01*
X75314909Y-77250000D02*
X75125000Y-77060091D01*
X108500000Y-58500000D02*
X108633975Y-58366025D01*
X85700444Y-60750000D02*
X85700444Y-63095000D01*
X89883975Y-99250000D02*
X90000000Y-99366025D01*
X86500000Y-69311826D02*
X86525000Y-69286826D01*
%TO.N,Net-(J1-Pin_1)*%
X87000000Y-63530296D02*
X86800296Y-63730000D01*
X109633975Y-55116025D02*
X109750000Y-55000000D01*
X135250000Y-91000000D02*
X132250000Y-89750000D01*
X132250000Y-89750000D02*
X132000000Y-90000000D01*
X109633975Y-56633975D02*
X109633975Y-55116025D01*
%TO.N,Net-(J2-Pin_1)*%
X84250000Y-70000000D02*
X84250000Y-68092122D01*
X84325296Y-67939852D02*
X87900148Y-64365000D01*
X84250000Y-68092122D02*
X84325296Y-68016826D01*
X61500000Y-66000000D02*
X58000000Y-66000000D01*
X84325296Y-68016826D02*
X84325296Y-67939852D01*
%TO.N,Net-(D1-A)*%
X116366025Y-90000000D02*
X116500000Y-90133975D01*
X116396379Y-87199931D02*
X116366025Y-90000000D01*
%TO.N,Net-(U1-CV)*%
X89000000Y-65000000D02*
X93250000Y-65000000D01*
X114500000Y-63000000D02*
X117250000Y-63000000D01*
%TD*%
%TA.AperFunction,Conductor*%
%TO.N,GND*%
G36*
X135002702Y-50500617D02*
G01*
X135386773Y-50517386D01*
X135397505Y-50518326D01*
X135775963Y-50568150D01*
X135786601Y-50570025D01*
X136159279Y-50652647D01*
X136169720Y-50655445D01*
X136533765Y-50770227D01*
X136543911Y-50773920D01*
X136896578Y-50920000D01*
X136906369Y-50924566D01*
X137244942Y-51100816D01*
X137254310Y-51106224D01*
X137576244Y-51311318D01*
X137585105Y-51317523D01*
X137887930Y-51549889D01*
X137896217Y-51556843D01*
X138177635Y-51814715D01*
X138185284Y-51822364D01*
X138443156Y-52103782D01*
X138450110Y-52112069D01*
X138682476Y-52414894D01*
X138688681Y-52423755D01*
X138893775Y-52745689D01*
X138899183Y-52755057D01*
X139075430Y-53093623D01*
X139080002Y-53103427D01*
X139226075Y-53456078D01*
X139229775Y-53466244D01*
X139344553Y-53830276D01*
X139347353Y-53840724D01*
X139429972Y-54213390D01*
X139431850Y-54224044D01*
X139481671Y-54602472D01*
X139482614Y-54613248D01*
X139499382Y-54997297D01*
X139499500Y-55002706D01*
X139499500Y-99997293D01*
X139499382Y-100002702D01*
X139482614Y-100386751D01*
X139481671Y-100397527D01*
X139431850Y-100775955D01*
X139429972Y-100786609D01*
X139347353Y-101159275D01*
X139344553Y-101169723D01*
X139229775Y-101533755D01*
X139226075Y-101543921D01*
X139080002Y-101896572D01*
X139075430Y-101906376D01*
X138899183Y-102244942D01*
X138893775Y-102254310D01*
X138688681Y-102576244D01*
X138682476Y-102585105D01*
X138450110Y-102887930D01*
X138443156Y-102896217D01*
X138185284Y-103177635D01*
X138177635Y-103185284D01*
X137896217Y-103443156D01*
X137887930Y-103450110D01*
X137585105Y-103682476D01*
X137576244Y-103688681D01*
X137254310Y-103893775D01*
X137244942Y-103899183D01*
X136906376Y-104075430D01*
X136896572Y-104080002D01*
X136543921Y-104226075D01*
X136533755Y-104229775D01*
X136169723Y-104344553D01*
X136159275Y-104347353D01*
X135786609Y-104429972D01*
X135775955Y-104431850D01*
X135397527Y-104481671D01*
X135386751Y-104482614D01*
X135002703Y-104499382D01*
X134997294Y-104499500D01*
X55002706Y-104499500D01*
X54997297Y-104499382D01*
X54613248Y-104482614D01*
X54602474Y-104481671D01*
X54540007Y-104473447D01*
X54224044Y-104431850D01*
X54213390Y-104429972D01*
X53840724Y-104347353D01*
X53830276Y-104344553D01*
X53466244Y-104229775D01*
X53456078Y-104226075D01*
X53103427Y-104080002D01*
X53093623Y-104075430D01*
X52755057Y-103899183D01*
X52745689Y-103893775D01*
X52423755Y-103688681D01*
X52414894Y-103682476D01*
X52112069Y-103450110D01*
X52103782Y-103443156D01*
X51822364Y-103185284D01*
X51814715Y-103177635D01*
X51556843Y-102896217D01*
X51549889Y-102887930D01*
X51317523Y-102585105D01*
X51311318Y-102576244D01*
X51106224Y-102254310D01*
X51100816Y-102244942D01*
X51058275Y-102163222D01*
X50924566Y-101906369D01*
X50919997Y-101896572D01*
X50919042Y-101894266D01*
X50773920Y-101543911D01*
X50770224Y-101533755D01*
X50769132Y-101530293D01*
X50655445Y-101169720D01*
X50652646Y-101159275D01*
X50638641Y-101096104D01*
X50570025Y-100786601D01*
X50568149Y-100775955D01*
X50555642Y-100680953D01*
X50518326Y-100397505D01*
X50517386Y-100386771D01*
X50517034Y-100378711D01*
X52749500Y-100378711D01*
X52749500Y-100621288D01*
X52781161Y-100861785D01*
X52843947Y-101096104D01*
X52936773Y-101320205D01*
X52936776Y-101320212D01*
X53058064Y-101530289D01*
X53058066Y-101530292D01*
X53058067Y-101530293D01*
X53205733Y-101722736D01*
X53205739Y-101722743D01*
X53377256Y-101894260D01*
X53377263Y-101894266D01*
X53386783Y-101901571D01*
X53569711Y-102041936D01*
X53779788Y-102163224D01*
X53975269Y-102244195D01*
X53999689Y-102254310D01*
X54003900Y-102256054D01*
X54238211Y-102318838D01*
X54418586Y-102342584D01*
X54478711Y-102350500D01*
X54478712Y-102350500D01*
X54721289Y-102350500D01*
X54769388Y-102344167D01*
X54961789Y-102318838D01*
X55196100Y-102256054D01*
X55420212Y-102163224D01*
X55630289Y-102041936D01*
X55822738Y-101894265D01*
X55994265Y-101722738D01*
X56141936Y-101530289D01*
X56263224Y-101320212D01*
X56356054Y-101096100D01*
X56418838Y-100861789D01*
X56450500Y-100621288D01*
X56450500Y-100378712D01*
X56418838Y-100138211D01*
X56356054Y-99903900D01*
X56263224Y-99679788D01*
X56141936Y-99469711D01*
X55994265Y-99277262D01*
X55994260Y-99277256D01*
X55822743Y-99105739D01*
X55822736Y-99105733D01*
X55630293Y-98958067D01*
X55630292Y-98958066D01*
X55630289Y-98958064D01*
X55420212Y-98836776D01*
X55420205Y-98836773D01*
X55196104Y-98743947D01*
X54961785Y-98681161D01*
X54721289Y-98649500D01*
X54721288Y-98649500D01*
X54478712Y-98649500D01*
X54478711Y-98649500D01*
X54238214Y-98681161D01*
X54003895Y-98743947D01*
X53779794Y-98836773D01*
X53779785Y-98836777D01*
X53569706Y-98958067D01*
X53377263Y-99105733D01*
X53377256Y-99105739D01*
X53205739Y-99277256D01*
X53205733Y-99277263D01*
X53058067Y-99469706D01*
X52936777Y-99679785D01*
X52936773Y-99679794D01*
X52843947Y-99903895D01*
X52781161Y-100138214D01*
X52749500Y-100378711D01*
X50517034Y-100378711D01*
X50500618Y-100002702D01*
X50500500Y-99997293D01*
X50500500Y-96371153D01*
X66499500Y-96371153D01*
X66499500Y-96528846D01*
X66530261Y-96683489D01*
X66530264Y-96683501D01*
X66590602Y-96829172D01*
X66590609Y-96829185D01*
X66678210Y-96960288D01*
X66678213Y-96960292D01*
X66789710Y-97071789D01*
X66863082Y-97120814D01*
X66920821Y-97159394D01*
X66944475Y-97169191D01*
X66984703Y-97196071D01*
X67471586Y-97682954D01*
X67496469Y-97699579D01*
X67508912Y-97707893D01*
X67594505Y-97765084D01*
X67731087Y-97821658D01*
X67731091Y-97821658D01*
X67731092Y-97821659D01*
X67876079Y-97850500D01*
X67876082Y-97850500D01*
X67876083Y-97850500D01*
X68023918Y-97850500D01*
X85437770Y-97850500D01*
X85504809Y-97870185D01*
X85525451Y-97886819D01*
X86537223Y-98898590D01*
X87483073Y-99844440D01*
X87483074Y-99844441D01*
X87542528Y-99903895D01*
X87587610Y-99948977D01*
X87710523Y-100031105D01*
X87710536Y-100031112D01*
X87847107Y-100087681D01*
X87847112Y-100087683D01*
X87847116Y-100087683D01*
X87847117Y-100087684D01*
X87992104Y-100116525D01*
X87992107Y-100116525D01*
X89065680Y-100116525D01*
X89127679Y-100133137D01*
X89882770Y-100569089D01*
X89977038Y-100611390D01*
X90148856Y-100646867D01*
X90324223Y-100641766D01*
X90493687Y-100596358D01*
X90648111Y-100513092D01*
X90648112Y-100513091D01*
X90648114Y-100513090D01*
X90779166Y-100396464D01*
X90779170Y-100396460D01*
X90782278Y-100392157D01*
X90791987Y-100378711D01*
X133549500Y-100378711D01*
X133549500Y-100621288D01*
X133581161Y-100861785D01*
X133643947Y-101096104D01*
X133736773Y-101320205D01*
X133736776Y-101320212D01*
X133858064Y-101530289D01*
X133858066Y-101530292D01*
X133858067Y-101530293D01*
X134005733Y-101722736D01*
X134005739Y-101722743D01*
X134177256Y-101894260D01*
X134177263Y-101894266D01*
X134186783Y-101901571D01*
X134369711Y-102041936D01*
X134579788Y-102163224D01*
X134775269Y-102244195D01*
X134799689Y-102254310D01*
X134803900Y-102256054D01*
X135038211Y-102318838D01*
X135218586Y-102342584D01*
X135278711Y-102350500D01*
X135278712Y-102350500D01*
X135521289Y-102350500D01*
X135569388Y-102344167D01*
X135761789Y-102318838D01*
X135996100Y-102256054D01*
X136220212Y-102163224D01*
X136430289Y-102041936D01*
X136622738Y-101894265D01*
X136794265Y-101722738D01*
X136941936Y-101530289D01*
X137063224Y-101320212D01*
X137156054Y-101096100D01*
X137218838Y-100861789D01*
X137250500Y-100621288D01*
X137250500Y-100378712D01*
X137218838Y-100138211D01*
X137156054Y-99903900D01*
X137063224Y-99679788D01*
X136941936Y-99469711D01*
X136794265Y-99277262D01*
X136794260Y-99277256D01*
X136622743Y-99105739D01*
X136622736Y-99105733D01*
X136430293Y-98958067D01*
X136430292Y-98958066D01*
X136430289Y-98958064D01*
X136220212Y-98836776D01*
X136220205Y-98836773D01*
X135996104Y-98743947D01*
X135761785Y-98681161D01*
X135521289Y-98649500D01*
X135521288Y-98649500D01*
X135278712Y-98649500D01*
X135278711Y-98649500D01*
X135038214Y-98681161D01*
X134803895Y-98743947D01*
X134579794Y-98836773D01*
X134579785Y-98836777D01*
X134369706Y-98958067D01*
X134177263Y-99105733D01*
X134177256Y-99105739D01*
X134005739Y-99277256D01*
X134005733Y-99277263D01*
X133858067Y-99469706D01*
X133736777Y-99679785D01*
X133736773Y-99679794D01*
X133643947Y-99903895D01*
X133581161Y-100138214D01*
X133549500Y-100378711D01*
X90791987Y-100378711D01*
X90839659Y-100312693D01*
X90839658Y-100312693D01*
X90839662Y-100312689D01*
X90839690Y-100312641D01*
X91049650Y-99948977D01*
X91239667Y-99619857D01*
X91281968Y-99525590D01*
X91317445Y-99353772D01*
X91312343Y-99178404D01*
X91278060Y-99050458D01*
X91279723Y-98980608D01*
X91318886Y-98922746D01*
X91365738Y-98898591D01*
X91493687Y-98864308D01*
X91648111Y-98781042D01*
X91648112Y-98781041D01*
X91648114Y-98781040D01*
X91779166Y-98664414D01*
X91779170Y-98664410D01*
X91814470Y-98615525D01*
X91839659Y-98580643D01*
X91880712Y-98509535D01*
X91917121Y-98446475D01*
X91967688Y-98398260D01*
X92024508Y-98384475D01*
X121939945Y-98384475D01*
X122037487Y-98365071D01*
X122084938Y-98355633D01*
X122221520Y-98299059D01*
X122270754Y-98266161D01*
X122307292Y-98241747D01*
X122328723Y-98230292D01*
X122379179Y-98209394D01*
X122510289Y-98121789D01*
X122621789Y-98010289D01*
X122709394Y-97879179D01*
X122769737Y-97733497D01*
X122800500Y-97578842D01*
X122800500Y-97421158D01*
X122800500Y-97421155D01*
X122800499Y-97421153D01*
X122769737Y-97266503D01*
X122769735Y-97266498D01*
X122709397Y-97120827D01*
X122709390Y-97120814D01*
X122621789Y-96989711D01*
X122621786Y-96989707D01*
X122510292Y-96878213D01*
X122510288Y-96878210D01*
X122379185Y-96790609D01*
X122379172Y-96790602D01*
X122233501Y-96730264D01*
X122233489Y-96730261D01*
X122078845Y-96699500D01*
X122078842Y-96699500D01*
X121921158Y-96699500D01*
X121921155Y-96699500D01*
X121766510Y-96730261D01*
X121766498Y-96730264D01*
X121620827Y-96790602D01*
X121620814Y-96790609D01*
X121513108Y-96862577D01*
X121446430Y-96883455D01*
X121444217Y-96883475D01*
X91934320Y-96883475D01*
X91872320Y-96866862D01*
X91117230Y-96430911D01*
X91117220Y-96430906D01*
X91117213Y-96430903D01*
X91022962Y-96388610D01*
X91022963Y-96388610D01*
X90851144Y-96353132D01*
X90675779Y-96358233D01*
X90506312Y-96403642D01*
X90351885Y-96486909D01*
X90220833Y-96603535D01*
X90220829Y-96603539D01*
X90160340Y-96687307D01*
X89825943Y-97266503D01*
X89760333Y-97380143D01*
X89760328Y-97380152D01*
X89760326Y-97380158D01*
X89718033Y-97474405D01*
X89718032Y-97474408D01*
X89682554Y-97646225D01*
X89687656Y-97821595D01*
X89721939Y-97949541D01*
X89720276Y-98019391D01*
X89681113Y-98077253D01*
X89634258Y-98101409D01*
X89506312Y-98135692D01*
X89351885Y-98218959D01*
X89220833Y-98335585D01*
X89220829Y-98335589D01*
X89160340Y-98419357D01*
X89082879Y-98553525D01*
X89032312Y-98601740D01*
X88975492Y-98615525D01*
X88428254Y-98615525D01*
X88361215Y-98595840D01*
X88340573Y-98579206D01*
X86278421Y-96517052D01*
X86278414Y-96517046D01*
X86204729Y-96467812D01*
X86204729Y-96467813D01*
X86155491Y-96434913D01*
X86018917Y-96378343D01*
X86018907Y-96378340D01*
X85873920Y-96349500D01*
X85873918Y-96349500D01*
X68312230Y-96349500D01*
X68245191Y-96329815D01*
X68224549Y-96313181D01*
X68046071Y-96134703D01*
X68019191Y-96094475D01*
X68009394Y-96070821D01*
X68009389Y-96070814D01*
X67921789Y-95939710D01*
X67810292Y-95828213D01*
X67810288Y-95828210D01*
X67679185Y-95740609D01*
X67679172Y-95740602D01*
X67533501Y-95680264D01*
X67533489Y-95680261D01*
X67378845Y-95649500D01*
X67378842Y-95649500D01*
X67221158Y-95649500D01*
X67221155Y-95649500D01*
X67066510Y-95680261D01*
X67066498Y-95680264D01*
X66920827Y-95740602D01*
X66920814Y-95740609D01*
X66789711Y-95828210D01*
X66789707Y-95828213D01*
X66678213Y-95939707D01*
X66678210Y-95939711D01*
X66590609Y-96070814D01*
X66590602Y-96070827D01*
X66530264Y-96216498D01*
X66530261Y-96216510D01*
X66499500Y-96371153D01*
X50500500Y-96371153D01*
X50500500Y-91878275D01*
X114182554Y-91878275D01*
X114187656Y-92053643D01*
X114187657Y-92053646D01*
X114233065Y-92223110D01*
X114316330Y-92377533D01*
X114432963Y-92508593D01*
X114432964Y-92508595D01*
X114516723Y-92569076D01*
X114516730Y-92569081D01*
X114687500Y-92667675D01*
X114735715Y-92718240D01*
X114749500Y-92775061D01*
X114749500Y-93445396D01*
X114740062Y-93492844D01*
X114730263Y-93516503D01*
X114730262Y-93516506D01*
X114730260Y-93516511D01*
X114699500Y-93671153D01*
X114699500Y-93828846D01*
X114730261Y-93983489D01*
X114730264Y-93983501D01*
X114790602Y-94129172D01*
X114790609Y-94129185D01*
X114878210Y-94260288D01*
X114878213Y-94260292D01*
X114989707Y-94371786D01*
X114989711Y-94371789D01*
X115120814Y-94459390D01*
X115120827Y-94459397D01*
X115266498Y-94519735D01*
X115266503Y-94519737D01*
X115421153Y-94550499D01*
X115421156Y-94550500D01*
X115421158Y-94550500D01*
X115578844Y-94550500D01*
X115578845Y-94550499D01*
X115733497Y-94519737D01*
X115879179Y-94459394D01*
X116010289Y-94371789D01*
X116121789Y-94260289D01*
X116209394Y-94129179D01*
X116269737Y-93983497D01*
X116300500Y-93828842D01*
X116300500Y-93671158D01*
X116300500Y-93671155D01*
X116300499Y-93671153D01*
X116269739Y-93516511D01*
X116269738Y-93516508D01*
X116269737Y-93516503D01*
X116259937Y-93492844D01*
X116250500Y-93445396D01*
X116250500Y-92975910D01*
X116270185Y-92908871D01*
X116275383Y-92902074D01*
X116275208Y-92901947D01*
X116279171Y-92896459D01*
X116339659Y-92812693D01*
X116739667Y-92119857D01*
X116781968Y-92025590D01*
X116817445Y-91853772D01*
X116812343Y-91678404D01*
X116778060Y-91550458D01*
X116779723Y-91480608D01*
X116818886Y-91422746D01*
X116865738Y-91398591D01*
X116993687Y-91364308D01*
X117072689Y-91321710D01*
X124648761Y-91321710D01*
X124687805Y-91474872D01*
X124687808Y-91474880D01*
X124765162Y-91612716D01*
X124765164Y-91612718D01*
X124765166Y-91612721D01*
X124875565Y-91725846D01*
X124875567Y-91725847D01*
X124875570Y-91725849D01*
X125011468Y-91806534D01*
X125011477Y-91806539D01*
X125011482Y-91806542D01*
X133761482Y-95556542D01*
X133896253Y-95596546D01*
X134047659Y-95602801D01*
X134054184Y-95603071D01*
X134054185Y-95603071D01*
X134208422Y-95568498D01*
X134208423Y-95568497D01*
X134208425Y-95568497D01*
X134348461Y-95495182D01*
X134464750Y-95388120D01*
X134549367Y-95254609D01*
X134596546Y-95103747D01*
X135153153Y-91903253D01*
X135184033Y-91840578D01*
X135243896Y-91804548D01*
X135275319Y-91800500D01*
X135328844Y-91800500D01*
X135328845Y-91800499D01*
X135483497Y-91769737D01*
X135629179Y-91709394D01*
X135760289Y-91621789D01*
X135871789Y-91510289D01*
X135959394Y-91379179D01*
X136019737Y-91233497D01*
X136050500Y-91078842D01*
X136050500Y-90921158D01*
X136050500Y-90921155D01*
X136050499Y-90921153D01*
X136035684Y-90846674D01*
X136019737Y-90766503D01*
X136000044Y-90718959D01*
X135959397Y-90620827D01*
X135959390Y-90620814D01*
X135871789Y-90489711D01*
X135871786Y-90489707D01*
X135760292Y-90378213D01*
X135760288Y-90378210D01*
X135629185Y-90290609D01*
X135629172Y-90290602D01*
X135538479Y-90253037D01*
X135484075Y-90209197D01*
X135462010Y-90142903D01*
X135463764Y-90117239D01*
X135596546Y-89353747D01*
X135603603Y-89297893D01*
X135602437Y-89275379D01*
X135598699Y-89203179D01*
X135595431Y-89140037D01*
X135546682Y-88989675D01*
X133046682Y-83739675D01*
X133024378Y-83697250D01*
X132928153Y-83571847D01*
X132802750Y-83475622D01*
X132802749Y-83475621D01*
X132802747Y-83475620D01*
X132708344Y-83436517D01*
X132656715Y-83415132D01*
X132500000Y-83394500D01*
X132343285Y-83415132D01*
X132343284Y-83415132D01*
X132197252Y-83475620D01*
X132197249Y-83475622D01*
X132071848Y-83571845D01*
X132071841Y-83571851D01*
X124821849Y-90821844D01*
X124821818Y-90821877D01*
X124774158Y-90875559D01*
X124774150Y-90875569D01*
X124693459Y-91011477D01*
X124650688Y-91163648D01*
X124650687Y-91163653D01*
X124648761Y-91321710D01*
X117072689Y-91321710D01*
X117148111Y-91281042D01*
X117279171Y-91164409D01*
X117339659Y-91080643D01*
X117739667Y-90387807D01*
X117781968Y-90293540D01*
X117817445Y-90121722D01*
X117812343Y-89946354D01*
X117766935Y-89776890D01*
X117683670Y-89622467D01*
X117567037Y-89491407D01*
X117567036Y-89491406D01*
X117567035Y-89491404D01*
X117483276Y-89430923D01*
X117483259Y-89430912D01*
X117187758Y-89260305D01*
X117139542Y-89209738D01*
X117125765Y-89151577D01*
X117143547Y-87511248D01*
X117152979Y-87465141D01*
X117166116Y-87433428D01*
X117196879Y-87278773D01*
X117196879Y-87121089D01*
X117196879Y-87121086D01*
X117196878Y-87121084D01*
X117166117Y-86966441D01*
X117166116Y-86966434D01*
X117141213Y-86906312D01*
X117105776Y-86820758D01*
X117105769Y-86820745D01*
X117018168Y-86689642D01*
X117018165Y-86689638D01*
X116906671Y-86578144D01*
X116906667Y-86578141D01*
X116775564Y-86490540D01*
X116775551Y-86490533D01*
X116629880Y-86430195D01*
X116629868Y-86430192D01*
X116475224Y-86399431D01*
X116475221Y-86399431D01*
X116317537Y-86399431D01*
X116317534Y-86399431D01*
X116162889Y-86430192D01*
X116162877Y-86430195D01*
X116017206Y-86490533D01*
X116017193Y-86490540D01*
X115886090Y-86578141D01*
X115886086Y-86578144D01*
X115774592Y-86689638D01*
X115774589Y-86689642D01*
X115686988Y-86820745D01*
X115686981Y-86820758D01*
X115626643Y-86966429D01*
X115626640Y-86966441D01*
X115595879Y-87121084D01*
X115595879Y-87278777D01*
X115626639Y-87433419D01*
X115626641Y-87433425D01*
X115626642Y-87433428D01*
X115633171Y-87449192D01*
X115642603Y-87497986D01*
X115623953Y-89218438D01*
X115607347Y-89279094D01*
X115260335Y-89880139D01*
X115260325Y-89880159D01*
X115218032Y-89974409D01*
X115182554Y-90146225D01*
X115187656Y-90321595D01*
X115221939Y-90449541D01*
X115220276Y-90519391D01*
X115181113Y-90577253D01*
X115134258Y-90601409D01*
X115006312Y-90635692D01*
X114851885Y-90718959D01*
X114720833Y-90835585D01*
X114720829Y-90835589D01*
X114660340Y-90919357D01*
X114260338Y-91612184D01*
X114260333Y-91612193D01*
X114260328Y-91612202D01*
X114260326Y-91612208D01*
X114218033Y-91706455D01*
X114218032Y-91706458D01*
X114182554Y-91878275D01*
X50500500Y-91878275D01*
X50500500Y-89171153D01*
X76699500Y-89171153D01*
X76699500Y-89328846D01*
X76730261Y-89483489D01*
X76730264Y-89483501D01*
X76790602Y-89629172D01*
X76790609Y-89629185D01*
X76878210Y-89760288D01*
X76878213Y-89760292D01*
X76989707Y-89871786D01*
X76989711Y-89871789D01*
X77120814Y-89959390D01*
X77120827Y-89959397D01*
X77242846Y-90009938D01*
X77266503Y-90019737D01*
X77403035Y-90046895D01*
X77421153Y-90050499D01*
X77421156Y-90050500D01*
X77421158Y-90050500D01*
X77578844Y-90050500D01*
X77578845Y-90050499D01*
X77668328Y-90032700D01*
X77733488Y-90019739D01*
X77733489Y-90019738D01*
X77733497Y-90019737D01*
X77757155Y-90009937D01*
X77804604Y-90000500D01*
X79695396Y-90000500D01*
X79742844Y-90009937D01*
X79766503Y-90019737D01*
X79766508Y-90019738D01*
X79766511Y-90019739D01*
X79921153Y-90050499D01*
X79921156Y-90050500D01*
X79921158Y-90050500D01*
X80078844Y-90050500D01*
X80078845Y-90050499D01*
X80233497Y-90019737D01*
X80278050Y-90001282D01*
X80347515Y-89993814D01*
X80409995Y-90025088D01*
X80445648Y-90085177D01*
X80449500Y-90115844D01*
X80449500Y-90267415D01*
X80481522Y-90469598D01*
X80544781Y-90664287D01*
X80596861Y-90766498D01*
X80625078Y-90821877D01*
X80637715Y-90846677D01*
X80758028Y-91012277D01*
X80902786Y-91157035D01*
X81008035Y-91233501D01*
X81068390Y-91277351D01*
X81184607Y-91336567D01*
X81250776Y-91370282D01*
X81250778Y-91370282D01*
X81250781Y-91370284D01*
X81337898Y-91398590D01*
X81445465Y-91433541D01*
X81546557Y-91449552D01*
X81647648Y-91465564D01*
X81647649Y-91465564D01*
X81852351Y-91465564D01*
X81852352Y-91465564D01*
X82054534Y-91433541D01*
X82249219Y-91370284D01*
X82431610Y-91277351D01*
X82524590Y-91209796D01*
X82597213Y-91157035D01*
X82597215Y-91157032D01*
X82597219Y-91157030D01*
X82741966Y-91012283D01*
X82741968Y-91012279D01*
X82741971Y-91012277D01*
X82794732Y-90939654D01*
X82862287Y-90846674D01*
X82955220Y-90664283D01*
X83018477Y-90469598D01*
X83050500Y-90267416D01*
X83050500Y-90062712D01*
X83045747Y-90032706D01*
X83018477Y-89860529D01*
X83001955Y-89809680D01*
X82955220Y-89665845D01*
X82955212Y-89665830D01*
X82954636Y-89664437D01*
X82954573Y-89663857D01*
X82953714Y-89661212D01*
X82954269Y-89661031D01*
X82947166Y-89594967D01*
X82978439Y-89532487D01*
X83038527Y-89496834D01*
X83094271Y-89495543D01*
X83109540Y-89498695D01*
X83135458Y-89504047D01*
X83310826Y-89498946D01*
X83480290Y-89453538D01*
X83634713Y-89370272D01*
X83692185Y-89319127D01*
X91906061Y-89319127D01*
X91909045Y-89338417D01*
X91978365Y-89517074D01*
X91978366Y-89517076D01*
X92084465Y-89676641D01*
X92084469Y-89676646D01*
X92222396Y-89809680D01*
X92258211Y-89833727D01*
X93050792Y-90291323D01*
X93089521Y-90310315D01*
X93273699Y-90363247D01*
X93464933Y-90375348D01*
X93464941Y-90375348D01*
X93654319Y-90346053D01*
X93672518Y-90338991D01*
X93299222Y-88945831D01*
X91906061Y-89319127D01*
X83692185Y-89319127D01*
X83765773Y-89253640D01*
X83826262Y-89169873D01*
X84044097Y-88792571D01*
X91939337Y-88792571D01*
X92362699Y-88679132D01*
X92362720Y-88679127D01*
X92682034Y-88593567D01*
X93126000Y-88593567D01*
X93126000Y-88685723D01*
X93149852Y-88774740D01*
X93195930Y-88854550D01*
X93261095Y-88919715D01*
X93340905Y-88965793D01*
X93429922Y-88989645D01*
X93522078Y-88989645D01*
X93611095Y-88965793D01*
X93690905Y-88919715D01*
X93756070Y-88854550D01*
X93778084Y-88816421D01*
X93782186Y-88816421D01*
X94111889Y-90046895D01*
X94111890Y-90046895D01*
X94125577Y-90032706D01*
X94125582Y-90032700D01*
X94149609Y-89996918D01*
X94149619Y-89996902D01*
X94988222Y-88544396D01*
X95007216Y-88505662D01*
X95012661Y-88486716D01*
X93782186Y-88816421D01*
X93778084Y-88816421D01*
X93802148Y-88774740D01*
X93826000Y-88685723D01*
X93826000Y-88593567D01*
X93802148Y-88504550D01*
X93756070Y-88424740D01*
X93690905Y-88359575D01*
X93611095Y-88313497D01*
X93522078Y-88289645D01*
X93429922Y-88289645D01*
X93340905Y-88313497D01*
X93261095Y-88359575D01*
X93195930Y-88424740D01*
X93149852Y-88504550D01*
X93126000Y-88593567D01*
X92682034Y-88593567D01*
X93169812Y-88462867D01*
X92840109Y-87232393D01*
X92826421Y-87246584D01*
X92802382Y-87282385D01*
X92802380Y-87282387D01*
X91963777Y-88734893D01*
X91944783Y-88773627D01*
X91939337Y-88792571D01*
X84044097Y-88792571D01*
X84426269Y-88130627D01*
X84468570Y-88036359D01*
X84504047Y-87864542D01*
X84498946Y-87689174D01*
X84453538Y-87519710D01*
X84370272Y-87365287D01*
X84370269Y-87365284D01*
X84370269Y-87365283D01*
X84253645Y-87234232D01*
X84253642Y-87234229D01*
X84253640Y-87234227D01*
X84253637Y-87234224D01*
X84253635Y-87234223D01*
X84169872Y-87173737D01*
X83927706Y-87033923D01*
X83765540Y-86940297D01*
X93279479Y-86940297D01*
X93652777Y-88333458D01*
X95045937Y-87960162D01*
X95045937Y-87960161D01*
X95042953Y-87940869D01*
X94977450Y-87772049D01*
X94971551Y-87702429D01*
X95004228Y-87640671D01*
X95065107Y-87606384D01*
X95074663Y-87604565D01*
X95395520Y-87556517D01*
X95788577Y-87416555D01*
X95788580Y-87416551D01*
X95788583Y-87416551D01*
X96176501Y-87109707D01*
X96176502Y-87109705D01*
X96176508Y-87109701D01*
X96400926Y-86802122D01*
X96609303Y-85954455D01*
X96511714Y-85460963D01*
X96423089Y-85270975D01*
X96412588Y-85201899D01*
X96441099Y-85138111D01*
X96499570Y-85099864D01*
X96516495Y-85096014D01*
X96702450Y-85067251D01*
X96881204Y-84997892D01*
X97040867Y-84891729D01*
X97112244Y-84817726D01*
X97173969Y-84753733D01*
X97173971Y-84753730D01*
X97173977Y-84753724D01*
X97198029Y-84717903D01*
X98036684Y-83265307D01*
X98055681Y-83226567D01*
X98108642Y-83042288D01*
X98120751Y-82850934D01*
X98091440Y-82661449D01*
X98022082Y-82482696D01*
X97915918Y-82323032D01*
X97915917Y-82323031D01*
X97777919Y-82189927D01*
X97777915Y-82189924D01*
X97777913Y-82189922D01*
X97742093Y-82165871D01*
X97742088Y-82165868D01*
X97742082Y-82165864D01*
X96949409Y-81708215D01*
X96910668Y-81689218D01*
X96726390Y-81636257D01*
X96535035Y-81624149D01*
X96535034Y-81624149D01*
X96345549Y-81653459D01*
X96166794Y-81722818D01*
X96007138Y-81828977D01*
X96007127Y-81828986D01*
X95874030Y-81966976D01*
X95874022Y-81966987D01*
X95849979Y-82002793D01*
X95849966Y-82002813D01*
X95011316Y-83455401D01*
X94992319Y-83494142D01*
X94939357Y-83678425D01*
X94927249Y-83869766D01*
X94927249Y-83869774D01*
X94956560Y-84059261D01*
X95019946Y-84222623D01*
X95025845Y-84292243D01*
X94993168Y-84354001D01*
X94932289Y-84388288D01*
X94920537Y-84390416D01*
X94574242Y-84436033D01*
X94574235Y-84436034D01*
X94125527Y-84645347D01*
X93782206Y-84915500D01*
X93782204Y-84915502D01*
X93524849Y-85348486D01*
X93391362Y-85876393D01*
X93391362Y-85876396D01*
X93388999Y-86218506D01*
X93423974Y-86367503D01*
X93458949Y-86516499D01*
X93458950Y-86516501D01*
X93563925Y-86728810D01*
X93575993Y-86797629D01*
X93548939Y-86862049D01*
X93491352Y-86901615D01*
X93471726Y-86906312D01*
X93297688Y-86933234D01*
X93297680Y-86933236D01*
X93279479Y-86940297D01*
X83765540Y-86940297D01*
X83429620Y-86746354D01*
X83130627Y-86573731D01*
X83130617Y-86573726D01*
X83130610Y-86573723D01*
X83036359Y-86531430D01*
X83036360Y-86531430D01*
X82864542Y-86495952D01*
X82689176Y-86501053D01*
X82519709Y-86546462D01*
X82365283Y-86629730D01*
X82234232Y-86746354D01*
X82234223Y-86746364D01*
X82173737Y-86830127D01*
X81967409Y-87187500D01*
X81916842Y-87235715D01*
X81860022Y-87249500D01*
X80304604Y-87249500D01*
X80257155Y-87240062D01*
X80233497Y-87230263D01*
X80233493Y-87230262D01*
X80233488Y-87230260D01*
X80078845Y-87199500D01*
X80078842Y-87199500D01*
X79921158Y-87199500D01*
X79921155Y-87199500D01*
X79766510Y-87230261D01*
X79766498Y-87230264D01*
X79620827Y-87290602D01*
X79620814Y-87290609D01*
X79489711Y-87378210D01*
X79489707Y-87378213D01*
X79378213Y-87489707D01*
X79378210Y-87489711D01*
X79290609Y-87620814D01*
X79290602Y-87620827D01*
X79230264Y-87766498D01*
X79230261Y-87766510D01*
X79199500Y-87921153D01*
X79199500Y-88078846D01*
X79230261Y-88233489D01*
X79230263Y-88233497D01*
X79269427Y-88328047D01*
X79276896Y-88397517D01*
X79245621Y-88459996D01*
X79185532Y-88495648D01*
X79154866Y-88499500D01*
X77804604Y-88499500D01*
X77757155Y-88490062D01*
X77733497Y-88480263D01*
X77733493Y-88480262D01*
X77733488Y-88480260D01*
X77578845Y-88449500D01*
X77578842Y-88449500D01*
X77421158Y-88449500D01*
X77421155Y-88449500D01*
X77266510Y-88480261D01*
X77266498Y-88480264D01*
X77120827Y-88540602D01*
X77120814Y-88540609D01*
X76989711Y-88628210D01*
X76989707Y-88628213D01*
X76878213Y-88739707D01*
X76878210Y-88739711D01*
X76790609Y-88870814D01*
X76790602Y-88870827D01*
X76730264Y-89016498D01*
X76730261Y-89016510D01*
X76699500Y-89171153D01*
X50500500Y-89171153D01*
X50500500Y-79171153D01*
X108199500Y-79171153D01*
X108199500Y-79328846D01*
X108230261Y-79483489D01*
X108230264Y-79483501D01*
X108290602Y-79629172D01*
X108290609Y-79629185D01*
X108378210Y-79760288D01*
X108378213Y-79760292D01*
X108489707Y-79871786D01*
X108489711Y-79871789D01*
X108620814Y-79959390D01*
X108620827Y-79959397D01*
X108720060Y-80000500D01*
X108766503Y-80019737D01*
X108921153Y-80050499D01*
X108921156Y-80050500D01*
X108921158Y-80050500D01*
X109078844Y-80050500D01*
X109078845Y-80050499D01*
X109155152Y-80035320D01*
X109233488Y-80019739D01*
X109233489Y-80019738D01*
X109233497Y-80019737D01*
X109257155Y-80009937D01*
X109304604Y-80000500D01*
X113445396Y-80000500D01*
X113492844Y-80009937D01*
X113516503Y-80019737D01*
X113516508Y-80019738D01*
X113516511Y-80019739D01*
X113671153Y-80050499D01*
X113671156Y-80050500D01*
X113671158Y-80050500D01*
X113828844Y-80050500D01*
X113828845Y-80050499D01*
X113983497Y-80019737D01*
X114129179Y-79959394D01*
X114260289Y-79871789D01*
X114371789Y-79760289D01*
X114459394Y-79629179D01*
X114519737Y-79483497D01*
X114550500Y-79328842D01*
X114550500Y-79171158D01*
X114550500Y-79171155D01*
X114550499Y-79171153D01*
X114519738Y-79016510D01*
X114519737Y-79016503D01*
X114519735Y-79016498D01*
X114459397Y-78870827D01*
X114459390Y-78870814D01*
X114371789Y-78739711D01*
X114371786Y-78739707D01*
X114260292Y-78628213D01*
X114260288Y-78628210D01*
X114129185Y-78540609D01*
X114129172Y-78540602D01*
X113983501Y-78480264D01*
X113983489Y-78480261D01*
X113828845Y-78449500D01*
X113828842Y-78449500D01*
X113671158Y-78449500D01*
X113671155Y-78449500D01*
X113516511Y-78480260D01*
X113516506Y-78480262D01*
X113516504Y-78480262D01*
X113516503Y-78480263D01*
X113492844Y-78490062D01*
X113445396Y-78499500D01*
X109304604Y-78499500D01*
X109257155Y-78490062D01*
X109233497Y-78480263D01*
X109233493Y-78480262D01*
X109233488Y-78480260D01*
X109078845Y-78449500D01*
X109078842Y-78449500D01*
X108921158Y-78449500D01*
X108921155Y-78449500D01*
X108766510Y-78480261D01*
X108766498Y-78480264D01*
X108620827Y-78540602D01*
X108620814Y-78540609D01*
X108489711Y-78628210D01*
X108489707Y-78628213D01*
X108378213Y-78739707D01*
X108378210Y-78739711D01*
X108290609Y-78870814D01*
X108290602Y-78870827D01*
X108230264Y-79016498D01*
X108230261Y-79016510D01*
X108199500Y-79171153D01*
X50500500Y-79171153D01*
X50500500Y-76942038D01*
X52825000Y-76942038D01*
X52825000Y-77178143D01*
X52861934Y-77411338D01*
X52934897Y-77635893D01*
X53042087Y-77846265D01*
X53102338Y-77929195D01*
X53102340Y-77929196D01*
X53647421Y-77384115D01*
X53660359Y-77415349D01*
X53742437Y-77538188D01*
X53846903Y-77642654D01*
X53969742Y-77724732D01*
X54000974Y-77737669D01*
X53455893Y-78282749D01*
X53538828Y-78343005D01*
X53749197Y-78450193D01*
X53973752Y-78523156D01*
X53973751Y-78523156D01*
X54206948Y-78560091D01*
X54443052Y-78560091D01*
X54676247Y-78523156D01*
X54900802Y-78450193D01*
X55111163Y-78343009D01*
X55111169Y-78343005D01*
X55194104Y-78282749D01*
X55194105Y-78282749D01*
X54649024Y-77737669D01*
X54680258Y-77724732D01*
X54803097Y-77642654D01*
X54907563Y-77538188D01*
X54989641Y-77415349D01*
X55002578Y-77384115D01*
X55547658Y-77929196D01*
X55547658Y-77929195D01*
X55607914Y-77846260D01*
X55607918Y-77846254D01*
X55715102Y-77635893D01*
X55788065Y-77411338D01*
X55825000Y-77178143D01*
X55825000Y-76942038D01*
X55788065Y-76708843D01*
X55715102Y-76484288D01*
X55607914Y-76273919D01*
X55547658Y-76190985D01*
X55547658Y-76190984D01*
X55002577Y-76736065D01*
X54989641Y-76704833D01*
X54907563Y-76581994D01*
X54803097Y-76477528D01*
X54680258Y-76395450D01*
X54649024Y-76382512D01*
X55019311Y-76012226D01*
X73624500Y-76012226D01*
X73624500Y-78107961D01*
X73624501Y-78107967D01*
X73630908Y-78167574D01*
X73681202Y-78302419D01*
X73681206Y-78302426D01*
X73767452Y-78417635D01*
X73767455Y-78417638D01*
X73882664Y-78503884D01*
X73882671Y-78503888D01*
X74017517Y-78554182D01*
X74017516Y-78554182D01*
X74024444Y-78554926D01*
X74077127Y-78560591D01*
X76172872Y-78560590D01*
X76232483Y-78554182D01*
X76367331Y-78503887D01*
X76482546Y-78417637D01*
X76568796Y-78302422D01*
X76619091Y-78167574D01*
X76625147Y-78111240D01*
X76651884Y-78046694D01*
X76709276Y-78006846D01*
X76748436Y-78000500D01*
X78445396Y-78000500D01*
X78492844Y-78009937D01*
X78516503Y-78019737D01*
X78516508Y-78019738D01*
X78516511Y-78019739D01*
X78671153Y-78050499D01*
X78671156Y-78050500D01*
X78671158Y-78050500D01*
X78828844Y-78050500D01*
X78828845Y-78050499D01*
X78983497Y-78019737D01*
X79129179Y-77959394D01*
X79260289Y-77871789D01*
X79371789Y-77760289D01*
X79459394Y-77629179D01*
X79519737Y-77483497D01*
X79550500Y-77328842D01*
X79550500Y-77171158D01*
X79550500Y-77171155D01*
X79550499Y-77171153D01*
X79519738Y-77016510D01*
X79519737Y-77016503D01*
X79488893Y-76942038D01*
X79459397Y-76870827D01*
X79459390Y-76870814D01*
X79371789Y-76739711D01*
X79371786Y-76739707D01*
X79260292Y-76628213D01*
X79260288Y-76628210D01*
X79129185Y-76540609D01*
X79129172Y-76540602D01*
X78983501Y-76480264D01*
X78983489Y-76480261D01*
X78828845Y-76449500D01*
X78828842Y-76449500D01*
X78671158Y-76449500D01*
X78671155Y-76449500D01*
X78516511Y-76480260D01*
X78516506Y-76480262D01*
X78516504Y-76480262D01*
X78516503Y-76480263D01*
X78492844Y-76490062D01*
X78445396Y-76499500D01*
X76749499Y-76499500D01*
X76682460Y-76479815D01*
X76636705Y-76427011D01*
X76625499Y-76375500D01*
X76625499Y-76012220D01*
X76625498Y-76012214D01*
X76625497Y-76012207D01*
X76619091Y-75952608D01*
X76568796Y-75817760D01*
X76568795Y-75817759D01*
X76568793Y-75817755D01*
X76482547Y-75702546D01*
X76482544Y-75702543D01*
X76367335Y-75616297D01*
X76367328Y-75616293D01*
X76232482Y-75565999D01*
X76232483Y-75565999D01*
X76172883Y-75559592D01*
X76172881Y-75559591D01*
X76172873Y-75559591D01*
X76172864Y-75559591D01*
X74077129Y-75559591D01*
X74077123Y-75559592D01*
X74017516Y-75565999D01*
X73882671Y-75616293D01*
X73882664Y-75616297D01*
X73767455Y-75702543D01*
X73767452Y-75702546D01*
X73681206Y-75817755D01*
X73681202Y-75817762D01*
X73630908Y-75952608D01*
X73624501Y-76012207D01*
X73624501Y-76012214D01*
X73624500Y-76012226D01*
X55019311Y-76012226D01*
X55110321Y-75921216D01*
X55194105Y-75837431D01*
X55194104Y-75837429D01*
X55111174Y-75777178D01*
X54900802Y-75669988D01*
X54676247Y-75597025D01*
X54676248Y-75597025D01*
X54443052Y-75560091D01*
X54206948Y-75560091D01*
X53973752Y-75597025D01*
X53749197Y-75669988D01*
X53538830Y-75777175D01*
X53455894Y-75837431D01*
X54000975Y-76382512D01*
X53969742Y-76395450D01*
X53846903Y-76477528D01*
X53742437Y-76581994D01*
X53660359Y-76704833D01*
X53647421Y-76736066D01*
X53102340Y-76190985D01*
X53042084Y-76273921D01*
X52934897Y-76484288D01*
X52861934Y-76708843D01*
X52825000Y-76942038D01*
X50500500Y-76942038D01*
X50500500Y-62010181D01*
X53644586Y-62010181D01*
X53644586Y-62010193D01*
X53667849Y-62166523D01*
X53667852Y-62166534D01*
X53730786Y-62311525D01*
X53730788Y-62311528D01*
X53953643Y-62682952D01*
X54366661Y-63371317D01*
X54384273Y-63438929D01*
X54384177Y-63441305D01*
X54145254Y-68219759D01*
X54145255Y-68219775D01*
X54151892Y-68344327D01*
X54151893Y-68344330D01*
X54168229Y-68399614D01*
X54196688Y-68495919D01*
X54279189Y-68630745D01*
X54393773Y-68739626D01*
X54393775Y-68739627D01*
X54532638Y-68815141D01*
X54763765Y-68904036D01*
X57782629Y-70065138D01*
X57782632Y-70065138D01*
X57782638Y-70065141D01*
X57914369Y-70099414D01*
X57993398Y-70100283D01*
X58072425Y-70101153D01*
X58072427Y-70101153D01*
X58072428Y-70101153D01*
X58103656Y-70093151D01*
X58225549Y-70061923D01*
X58363300Y-69984400D01*
X59912583Y-68822438D01*
X59966674Y-68781870D01*
X82705802Y-68781870D01*
X82708056Y-68782945D01*
X82867546Y-68822120D01*
X82867552Y-68822121D01*
X83031764Y-68820402D01*
X83039492Y-68819344D01*
X83039915Y-68822438D01*
X83095267Y-68823721D01*
X83153154Y-68862847D01*
X83171064Y-68897550D01*
X83172877Y-68896811D01*
X83175826Y-68904037D01*
X83256505Y-69047218D01*
X83256509Y-69047224D01*
X83370266Y-69165849D01*
X83400750Y-69186799D01*
X83437500Y-69208017D01*
X83485715Y-69258581D01*
X83499500Y-69315403D01*
X83499500Y-69695396D01*
X83490062Y-69742844D01*
X83487099Y-69750000D01*
X83480262Y-69766506D01*
X83480260Y-69766511D01*
X83449500Y-69921153D01*
X83449500Y-70078846D01*
X83480261Y-70233489D01*
X83480264Y-70233501D01*
X83540602Y-70379172D01*
X83540609Y-70379185D01*
X83628210Y-70510288D01*
X83628213Y-70510292D01*
X83739707Y-70621786D01*
X83739711Y-70621789D01*
X83870814Y-70709390D01*
X83870827Y-70709397D01*
X83970060Y-70750500D01*
X84016503Y-70769737D01*
X84062914Y-70778968D01*
X84100382Y-70786422D01*
X84162293Y-70818807D01*
X84196867Y-70879522D01*
X84199253Y-70915066D01*
X84199500Y-70915066D01*
X84199500Y-70918743D01*
X84199596Y-70920174D01*
X84199500Y-70921150D01*
X84199500Y-71078846D01*
X84230261Y-71233489D01*
X84230264Y-71233501D01*
X84290602Y-71379172D01*
X84290609Y-71379185D01*
X84378210Y-71510288D01*
X84378213Y-71510292D01*
X84489707Y-71621786D01*
X84489711Y-71621789D01*
X84620814Y-71709390D01*
X84620827Y-71709397D01*
X84766498Y-71769735D01*
X84766503Y-71769737D01*
X84921153Y-71800499D01*
X84921156Y-71800500D01*
X84921158Y-71800500D01*
X85078844Y-71800500D01*
X85078845Y-71800499D01*
X85233497Y-71769737D01*
X85379179Y-71709394D01*
X85510289Y-71621789D01*
X85621789Y-71510289D01*
X85629145Y-71499279D01*
X85646898Y-71472712D01*
X85700510Y-71427906D01*
X85769835Y-71419199D01*
X85832862Y-71449353D01*
X85853102Y-71472712D01*
X85878207Y-71510284D01*
X85878213Y-71510292D01*
X85989707Y-71621786D01*
X85989711Y-71621789D01*
X86120814Y-71709390D01*
X86120827Y-71709397D01*
X86266498Y-71769735D01*
X86266503Y-71769737D01*
X86421153Y-71800499D01*
X86421156Y-71800500D01*
X86421158Y-71800500D01*
X86578844Y-71800500D01*
X86578845Y-71800499D01*
X86733497Y-71769737D01*
X86879179Y-71709394D01*
X87010289Y-71621789D01*
X87121789Y-71510289D01*
X87209394Y-71379179D01*
X87234268Y-71319127D01*
X91858061Y-71319127D01*
X91861045Y-71338417D01*
X91930365Y-71517074D01*
X91930366Y-71517076D01*
X92036465Y-71676641D01*
X92036469Y-71676646D01*
X92174396Y-71809680D01*
X92210211Y-71833727D01*
X93002792Y-72291323D01*
X93041521Y-72310315D01*
X93225699Y-72363247D01*
X93416933Y-72375348D01*
X93416941Y-72375348D01*
X93606319Y-72346053D01*
X93624518Y-72338991D01*
X93251222Y-70945831D01*
X91858061Y-71319127D01*
X87234268Y-71319127D01*
X87269737Y-71233497D01*
X87300500Y-71078842D01*
X87300500Y-70921158D01*
X87300500Y-70921155D01*
X87287405Y-70855326D01*
X87274922Y-70792571D01*
X91891337Y-70792571D01*
X92314699Y-70679132D01*
X92314720Y-70679127D01*
X92634034Y-70593567D01*
X93078000Y-70593567D01*
X93078000Y-70685723D01*
X93101852Y-70774740D01*
X93147930Y-70854550D01*
X93213095Y-70919715D01*
X93292905Y-70965793D01*
X93381922Y-70989645D01*
X93474078Y-70989645D01*
X93563095Y-70965793D01*
X93642905Y-70919715D01*
X93708070Y-70854550D01*
X93730084Y-70816421D01*
X93734186Y-70816421D01*
X94063889Y-72046895D01*
X94063890Y-72046895D01*
X94077577Y-72032706D01*
X94077582Y-72032700D01*
X94101609Y-71996918D01*
X94101619Y-71996902D01*
X94940222Y-70544396D01*
X94959216Y-70505662D01*
X94964661Y-70486716D01*
X93734186Y-70816421D01*
X93730084Y-70816421D01*
X93754148Y-70774740D01*
X93778000Y-70685723D01*
X93778000Y-70593567D01*
X93754148Y-70504550D01*
X93708070Y-70424740D01*
X93642905Y-70359575D01*
X93563095Y-70313497D01*
X93474078Y-70289645D01*
X93381922Y-70289645D01*
X93292905Y-70313497D01*
X93213095Y-70359575D01*
X93147930Y-70424740D01*
X93101852Y-70504550D01*
X93078000Y-70593567D01*
X92634034Y-70593567D01*
X93121812Y-70462867D01*
X92792109Y-69232393D01*
X92778421Y-69246584D01*
X92754382Y-69282385D01*
X92754380Y-69282387D01*
X91915777Y-70734893D01*
X91896783Y-70773627D01*
X91891337Y-70792571D01*
X87274922Y-70792571D01*
X87269737Y-70766503D01*
X87256554Y-70734676D01*
X87254365Y-70726115D01*
X87254703Y-70716528D01*
X87250500Y-70695396D01*
X87250500Y-69664447D01*
X87267113Y-69602447D01*
X87293631Y-69556517D01*
X87649406Y-68940297D01*
X93231479Y-68940297D01*
X93604777Y-70333458D01*
X94997937Y-69960162D01*
X94997937Y-69960161D01*
X94995903Y-69947008D01*
X94986082Y-69921153D01*
X113699500Y-69921153D01*
X113699500Y-70078846D01*
X113730261Y-70233489D01*
X113730264Y-70233501D01*
X113790602Y-70379172D01*
X113790609Y-70379185D01*
X113878210Y-70510288D01*
X113878213Y-70510292D01*
X113989707Y-70621786D01*
X113989711Y-70621789D01*
X114120814Y-70709390D01*
X114120827Y-70709397D01*
X114220060Y-70750500D01*
X114266503Y-70769737D01*
X114421153Y-70800499D01*
X114421156Y-70800500D01*
X114421158Y-70800500D01*
X114578844Y-70800500D01*
X114578845Y-70800499D01*
X114655152Y-70785320D01*
X114733488Y-70769739D01*
X114733489Y-70769738D01*
X114733497Y-70769737D01*
X114757155Y-70759937D01*
X114804604Y-70750500D01*
X116195396Y-70750500D01*
X116242844Y-70759937D01*
X116266503Y-70769737D01*
X116266508Y-70769738D01*
X116266511Y-70769739D01*
X116421153Y-70800499D01*
X116421156Y-70800500D01*
X116421158Y-70800500D01*
X116578844Y-70800500D01*
X116578845Y-70800499D01*
X116733497Y-70769737D01*
X116879179Y-70709394D01*
X117010289Y-70621789D01*
X117121789Y-70510289D01*
X117162084Y-70449983D01*
X125999500Y-70449983D01*
X125999500Y-72050001D01*
X125999501Y-72050018D01*
X126010000Y-72152796D01*
X126010001Y-72152799D01*
X126055904Y-72291323D01*
X126065186Y-72319334D01*
X126157288Y-72468656D01*
X126281344Y-72592712D01*
X126430666Y-72684814D01*
X126597203Y-72739999D01*
X126699991Y-72750500D01*
X128300008Y-72750499D01*
X128402797Y-72739999D01*
X128569334Y-72684814D01*
X128718656Y-72592712D01*
X128842712Y-72468656D01*
X128934814Y-72319334D01*
X128989999Y-72152797D01*
X129000500Y-72050009D01*
X129000499Y-71131947D01*
X130500000Y-71131947D01*
X130500000Y-71368052D01*
X130536934Y-71601247D01*
X130609897Y-71825802D01*
X130717087Y-72036174D01*
X130777338Y-72119104D01*
X130777340Y-72119105D01*
X131578274Y-71318171D01*
X131603963Y-71414044D01*
X131659916Y-71510956D01*
X131739044Y-71590084D01*
X131835956Y-71646037D01*
X131931828Y-71671725D01*
X131130893Y-72472658D01*
X131213828Y-72532914D01*
X131424197Y-72640102D01*
X131648752Y-72713065D01*
X131648751Y-72713065D01*
X131881948Y-72750000D01*
X132118052Y-72750000D01*
X132351247Y-72713065D01*
X132575802Y-72640102D01*
X132786163Y-72532918D01*
X132786169Y-72532914D01*
X132869104Y-72472658D01*
X132869105Y-72472658D01*
X132068171Y-71671725D01*
X132164044Y-71646037D01*
X132260956Y-71590084D01*
X132340084Y-71510956D01*
X132396037Y-71414044D01*
X132421725Y-71318172D01*
X133222658Y-72119105D01*
X133222658Y-72119104D01*
X133282914Y-72036169D01*
X133282918Y-72036163D01*
X133390102Y-71825802D01*
X133463065Y-71601247D01*
X133500000Y-71368052D01*
X133500000Y-71131947D01*
X133463065Y-70898752D01*
X133390102Y-70674197D01*
X133282914Y-70463828D01*
X133222658Y-70380894D01*
X133222658Y-70380893D01*
X132421725Y-71181827D01*
X132396037Y-71085956D01*
X132340084Y-70989044D01*
X132260956Y-70909916D01*
X132164044Y-70853963D01*
X132068172Y-70828274D01*
X132869105Y-70027340D01*
X132869104Y-70027338D01*
X132786174Y-69967087D01*
X132575802Y-69859897D01*
X132351247Y-69786934D01*
X132351248Y-69786934D01*
X132118052Y-69750000D01*
X131881948Y-69750000D01*
X131648752Y-69786934D01*
X131424197Y-69859897D01*
X131213830Y-69967084D01*
X131130894Y-70027340D01*
X131931828Y-70828274D01*
X131835956Y-70853963D01*
X131739044Y-70909916D01*
X131659916Y-70989044D01*
X131603963Y-71085956D01*
X131578274Y-71181828D01*
X130777340Y-70380894D01*
X130717084Y-70463830D01*
X130609897Y-70674197D01*
X130536934Y-70898752D01*
X130500000Y-71131947D01*
X129000499Y-71131947D01*
X129000499Y-70449992D01*
X128997919Y-70424740D01*
X128989999Y-70347203D01*
X128989998Y-70347200D01*
X128970926Y-70289645D01*
X128934814Y-70180666D01*
X128842712Y-70031344D01*
X128718656Y-69907288D01*
X128569334Y-69815186D01*
X128402797Y-69760001D01*
X128402795Y-69760000D01*
X128300010Y-69749500D01*
X126699998Y-69749500D01*
X126699981Y-69749501D01*
X126597203Y-69760000D01*
X126597200Y-69760001D01*
X126430668Y-69815185D01*
X126430663Y-69815187D01*
X126281342Y-69907289D01*
X126157289Y-70031342D01*
X126065187Y-70180663D01*
X126065185Y-70180668D01*
X126047678Y-70233501D01*
X126010001Y-70347203D01*
X126010001Y-70347204D01*
X126010000Y-70347204D01*
X125999500Y-70449983D01*
X117162084Y-70449983D01*
X117209394Y-70379179D01*
X117269737Y-70233497D01*
X117300500Y-70078842D01*
X117300500Y-69921158D01*
X117300500Y-69921155D01*
X117300499Y-69921153D01*
X117279421Y-69815187D01*
X117269737Y-69766503D01*
X117262694Y-69749500D01*
X117209397Y-69620827D01*
X117209390Y-69620814D01*
X117121789Y-69489711D01*
X117121786Y-69489707D01*
X117010292Y-69378213D01*
X117010288Y-69378210D01*
X116879185Y-69290609D01*
X116879172Y-69290602D01*
X116733501Y-69230264D01*
X116733489Y-69230261D01*
X116578845Y-69199500D01*
X116578842Y-69199500D01*
X116421158Y-69199500D01*
X116421155Y-69199500D01*
X116266511Y-69230260D01*
X116266506Y-69230262D01*
X116266504Y-69230262D01*
X116266503Y-69230263D01*
X116242844Y-69240062D01*
X116195396Y-69249500D01*
X114804604Y-69249500D01*
X114757155Y-69240062D01*
X114733497Y-69230263D01*
X114733493Y-69230262D01*
X114733488Y-69230260D01*
X114578845Y-69199500D01*
X114578842Y-69199500D01*
X114421158Y-69199500D01*
X114421155Y-69199500D01*
X114266510Y-69230261D01*
X114266498Y-69230264D01*
X114120827Y-69290602D01*
X114120814Y-69290609D01*
X113989711Y-69378210D01*
X113989707Y-69378213D01*
X113878213Y-69489707D01*
X113878210Y-69489711D01*
X113790609Y-69620814D01*
X113790602Y-69620827D01*
X113730264Y-69766498D01*
X113730261Y-69766510D01*
X113699500Y-69921153D01*
X94986082Y-69921153D01*
X94929134Y-69771225D01*
X94926470Y-69736890D01*
X94923551Y-69702429D01*
X94923766Y-69702021D01*
X94923731Y-69701564D01*
X94940054Y-69671237D01*
X94956228Y-69640671D01*
X94956629Y-69640444D01*
X94956847Y-69640041D01*
X94987003Y-69623338D01*
X95017107Y-69606384D01*
X95017879Y-69606237D01*
X95017968Y-69606188D01*
X95018093Y-69606196D01*
X95026663Y-69604565D01*
X95347520Y-69556517D01*
X95740577Y-69416555D01*
X95740580Y-69416551D01*
X95740583Y-69416551D01*
X96128501Y-69109707D01*
X96128502Y-69109705D01*
X96128508Y-69109701D01*
X96352926Y-68802122D01*
X96561303Y-67954455D01*
X96463714Y-67460963D01*
X96375089Y-67270975D01*
X96364588Y-67201899D01*
X96393099Y-67138111D01*
X96451570Y-67099864D01*
X96468495Y-67096014D01*
X96654450Y-67067251D01*
X96833204Y-66997892D01*
X96983965Y-66897648D01*
X117699500Y-66897648D01*
X117699500Y-67102351D01*
X117731522Y-67304534D01*
X117794781Y-67499223D01*
X117887715Y-67681613D01*
X118008028Y-67847213D01*
X118152786Y-67991971D01*
X118307749Y-68104556D01*
X118318390Y-68112287D01*
X118434607Y-68171503D01*
X118500776Y-68205218D01*
X118500778Y-68205218D01*
X118500781Y-68205220D01*
X118545540Y-68219763D01*
X118695465Y-68268477D01*
X118697770Y-68268842D01*
X118897648Y-68300500D01*
X118897649Y-68300500D01*
X119102351Y-68300500D01*
X119102352Y-68300500D01*
X119304534Y-68268477D01*
X119499219Y-68205220D01*
X119681610Y-68112287D01*
X119774590Y-68044732D01*
X119847213Y-67991971D01*
X119847215Y-67991968D01*
X119847219Y-67991966D01*
X119991966Y-67847219D01*
X119991968Y-67847215D01*
X119991971Y-67847213D01*
X120051980Y-67764616D01*
X120112287Y-67681610D01*
X120205220Y-67499219D01*
X120268477Y-67304534D01*
X120300500Y-67102352D01*
X120300500Y-66897648D01*
X120280241Y-66769737D01*
X120268477Y-66695465D01*
X120216454Y-66535355D01*
X120205220Y-66500781D01*
X120205218Y-66500778D01*
X120205218Y-66500776D01*
X120130432Y-66354001D01*
X120112287Y-66318390D01*
X120112285Y-66318388D01*
X120110677Y-66315231D01*
X120097781Y-66246562D01*
X120124057Y-66181821D01*
X120181163Y-66141564D01*
X120221162Y-66134936D01*
X120339515Y-66134936D01*
X120339514Y-66134935D01*
X120090222Y-65204568D01*
X120095606Y-65207677D01*
X120197339Y-65234936D01*
X120302661Y-65234936D01*
X120404394Y-65207677D01*
X120495606Y-65155016D01*
X120570080Y-65080542D01*
X120573186Y-65075160D01*
X120821708Y-66002658D01*
X120931345Y-65946797D01*
X120931353Y-65946792D01*
X121096894Y-65826518D01*
X121096895Y-65826518D01*
X121241582Y-65681831D01*
X121241582Y-65681830D01*
X121361859Y-65516285D01*
X121454755Y-65333967D01*
X121517990Y-65139353D01*
X121550000Y-64937253D01*
X121550000Y-64745420D01*
X121549999Y-64745420D01*
X120619634Y-64994711D01*
X120622741Y-64989330D01*
X120650000Y-64887597D01*
X120650000Y-64782275D01*
X120622741Y-64680542D01*
X120570080Y-64589330D01*
X120495606Y-64514856D01*
X120490222Y-64511747D01*
X121417722Y-64263226D01*
X121417722Y-64263224D01*
X121361861Y-64153590D01*
X121361856Y-64153582D01*
X121241582Y-63988041D01*
X121241582Y-63988040D01*
X121096895Y-63843353D01*
X120931349Y-63723076D01*
X120749031Y-63630180D01*
X120554417Y-63566945D01*
X120352317Y-63534936D01*
X120160485Y-63534936D01*
X120409775Y-64465302D01*
X120404394Y-64462195D01*
X120302661Y-64434936D01*
X120197339Y-64434936D01*
X120095606Y-64462195D01*
X120004394Y-64514856D01*
X119929920Y-64589330D01*
X119926812Y-64594713D01*
X119678290Y-63667212D01*
X119678289Y-63667212D01*
X119568650Y-63723076D01*
X119403105Y-63843353D01*
X119403104Y-63843353D01*
X119258417Y-63988040D01*
X119258417Y-63988041D01*
X119138140Y-64153586D01*
X119045244Y-64335904D01*
X118982009Y-64530518D01*
X118950000Y-64732618D01*
X118950000Y-64924450D01*
X119136725Y-64874418D01*
X119880367Y-64675158D01*
X119877259Y-64680542D01*
X119850000Y-64782275D01*
X119850000Y-64887597D01*
X119877259Y-64989330D01*
X119929920Y-65080542D01*
X120004394Y-65155016D01*
X120009774Y-65158122D01*
X119082276Y-65406644D01*
X119082276Y-65406646D01*
X119139628Y-65519206D01*
X119152524Y-65587875D01*
X119126247Y-65652615D01*
X119069141Y-65692872D01*
X119029143Y-65699500D01*
X118897648Y-65699500D01*
X118873329Y-65703351D01*
X118695465Y-65731522D01*
X118500776Y-65794781D01*
X118318386Y-65887715D01*
X118152786Y-66008028D01*
X118008028Y-66152786D01*
X117887715Y-66318386D01*
X117794781Y-66500776D01*
X117731522Y-66695465D01*
X117699500Y-66897648D01*
X96983965Y-66897648D01*
X96992867Y-66891729D01*
X97125977Y-66753724D01*
X97150029Y-66717903D01*
X97988684Y-65265307D01*
X98007681Y-65226567D01*
X98060642Y-65042288D01*
X98072751Y-64850934D01*
X98043440Y-64661449D01*
X97974082Y-64482696D01*
X97972740Y-64480678D01*
X97867917Y-64323031D01*
X97729919Y-64189927D01*
X97729915Y-64189924D01*
X97729913Y-64189922D01*
X97694093Y-64165871D01*
X97694088Y-64165868D01*
X97694082Y-64165864D01*
X96901409Y-63708215D01*
X96862668Y-63689218D01*
X96678390Y-63636257D01*
X96487035Y-63624149D01*
X96487034Y-63624149D01*
X96297549Y-63653459D01*
X96118794Y-63722818D01*
X95959138Y-63828977D01*
X95959127Y-63828986D01*
X95826030Y-63966976D01*
X95826022Y-63966987D01*
X95801979Y-64002793D01*
X95801966Y-64002813D01*
X94963316Y-65455401D01*
X94944319Y-65494142D01*
X94891357Y-65678425D01*
X94879249Y-65869766D01*
X94879249Y-65869774D01*
X94879249Y-65869776D01*
X94891163Y-65946797D01*
X94908560Y-66059261D01*
X94971946Y-66222623D01*
X94977845Y-66292243D01*
X94945168Y-66354001D01*
X94884289Y-66388288D01*
X94872537Y-66390416D01*
X94526242Y-66436033D01*
X94526235Y-66436034D01*
X94077527Y-66645347D01*
X93734206Y-66915500D01*
X93734204Y-66915502D01*
X93476849Y-67348486D01*
X93343362Y-67876393D01*
X93343362Y-67876396D01*
X93340999Y-68218506D01*
X93341297Y-68219775D01*
X93410949Y-68516499D01*
X93410950Y-68516501D01*
X93515925Y-68728810D01*
X93527993Y-68797629D01*
X93500939Y-68862049D01*
X93443352Y-68901615D01*
X93423726Y-68906312D01*
X93249688Y-68933234D01*
X93249680Y-68933236D01*
X93231479Y-68940297D01*
X87649406Y-68940297D01*
X87663600Y-68915712D01*
X87679525Y-68882327D01*
X87718728Y-68722716D01*
X87717008Y-68558370D01*
X87674470Y-68399616D01*
X87600782Y-68268842D01*
X87593790Y-68256433D01*
X87593786Y-68256427D01*
X87480033Y-68137806D01*
X87480032Y-68137805D01*
X87480030Y-68137803D01*
X87449546Y-68116853D01*
X87449542Y-68116850D01*
X87075957Y-67901160D01*
X87075931Y-67901147D01*
X87042577Y-67885237D01*
X87042571Y-67885235D01*
X87042569Y-67885234D01*
X87042568Y-67885234D01*
X86882957Y-67846030D01*
X86882953Y-67846029D01*
X86718612Y-67847750D01*
X86710885Y-67848809D01*
X86710467Y-67845759D01*
X86654886Y-67844396D01*
X86597052Y-67805191D01*
X86579482Y-67771059D01*
X86577567Y-67771841D01*
X86574617Y-67764614D01*
X86493938Y-67621433D01*
X86493934Y-67621427D01*
X86380181Y-67502806D01*
X86380180Y-67502805D01*
X86380178Y-67502803D01*
X86349694Y-67481853D01*
X86248679Y-67423532D01*
X86169465Y-67377797D01*
X86121250Y-67327230D01*
X86108028Y-67258622D01*
X86133996Y-67193758D01*
X86143777Y-67182737D01*
X87484711Y-65841803D01*
X87510340Y-65827808D01*
X87534514Y-65811412D01*
X87542835Y-65810065D01*
X87546032Y-65808320D01*
X87569313Y-65805524D01*
X87570150Y-65805503D01*
X87706537Y-65804075D01*
X87714585Y-65801918D01*
X87729341Y-65801552D01*
X87749377Y-65806898D01*
X87770110Y-65807381D01*
X87782453Y-65815725D01*
X87796848Y-65819567D01*
X87810811Y-65834896D01*
X87827994Y-65846512D01*
X87836626Y-65863236D01*
X87843899Y-65871220D01*
X87845435Y-65880302D01*
X87845672Y-65880761D01*
X87847580Y-65879983D01*
X87850530Y-65887211D01*
X87931209Y-66030392D01*
X87931213Y-66030398D01*
X88044970Y-66149023D01*
X88075454Y-66169973D01*
X88075457Y-66169975D01*
X88449042Y-66385665D01*
X88449068Y-66385678D01*
X88482422Y-66401588D01*
X88482427Y-66401589D01*
X88482432Y-66401592D01*
X88642043Y-66440796D01*
X88642045Y-66440795D01*
X88642046Y-66440796D01*
X88724216Y-66439935D01*
X88806389Y-66439075D01*
X88965143Y-66396537D01*
X89108330Y-66315854D01*
X89226956Y-66202097D01*
X89247906Y-66171614D01*
X89455240Y-65812499D01*
X89505807Y-65764285D01*
X89562627Y-65750500D01*
X92945396Y-65750500D01*
X92992844Y-65759937D01*
X93016503Y-65769737D01*
X93016508Y-65769738D01*
X93016511Y-65769739D01*
X93171153Y-65800499D01*
X93171156Y-65800500D01*
X93171158Y-65800500D01*
X93328844Y-65800500D01*
X93328845Y-65800499D01*
X93483497Y-65769737D01*
X93629179Y-65709394D01*
X93760289Y-65621789D01*
X93871789Y-65510289D01*
X93959394Y-65379179D01*
X94019737Y-65233497D01*
X94050500Y-65078842D01*
X94050500Y-64921158D01*
X94050500Y-64921155D01*
X94050499Y-64921153D01*
X94022874Y-64782275D01*
X94019737Y-64766503D01*
X94011004Y-64745420D01*
X93959397Y-64620827D01*
X93959390Y-64620814D01*
X93871789Y-64489711D01*
X93871786Y-64489707D01*
X93760292Y-64378213D01*
X93760288Y-64378210D01*
X93629185Y-64290609D01*
X93629172Y-64290602D01*
X93483501Y-64230264D01*
X93483489Y-64230261D01*
X93328845Y-64199500D01*
X93328842Y-64199500D01*
X93171158Y-64199500D01*
X93171155Y-64199500D01*
X93016511Y-64230260D01*
X93016506Y-64230262D01*
X93016504Y-64230262D01*
X93016503Y-64230263D01*
X92992844Y-64240062D01*
X92945396Y-64249500D01*
X90281250Y-64249500D01*
X90214211Y-64229815D01*
X90168456Y-64177011D01*
X90161475Y-64157593D01*
X90152848Y-64125398D01*
X90149470Y-64112790D01*
X90101630Y-64027889D01*
X90068790Y-63969607D01*
X90068786Y-63969601D01*
X89955033Y-63850980D01*
X89955032Y-63850979D01*
X89955030Y-63850977D01*
X89924546Y-63830027D01*
X89924542Y-63830024D01*
X89550957Y-63614334D01*
X89550931Y-63614321D01*
X89517577Y-63598411D01*
X89517571Y-63598409D01*
X89517569Y-63598408D01*
X89517568Y-63598408D01*
X89357957Y-63559204D01*
X89357953Y-63559203D01*
X89193612Y-63560924D01*
X89185885Y-63561983D01*
X89185467Y-63558933D01*
X89129886Y-63557570D01*
X89072052Y-63518365D01*
X89054482Y-63484233D01*
X89052567Y-63485015D01*
X89049617Y-63477788D01*
X88968938Y-63334607D01*
X88968934Y-63334601D01*
X88855181Y-63215980D01*
X88855180Y-63215979D01*
X88855178Y-63215977D01*
X88831125Y-63199447D01*
X88824690Y-63195024D01*
X88628730Y-63081887D01*
X88580514Y-63031320D01*
X88567291Y-62962713D01*
X88583929Y-62921153D01*
X113699500Y-62921153D01*
X113699500Y-63078846D01*
X113730261Y-63233489D01*
X113730264Y-63233501D01*
X113790602Y-63379172D01*
X113790609Y-63379185D01*
X113878210Y-63510288D01*
X113878213Y-63510292D01*
X113989707Y-63621786D01*
X113989711Y-63621789D01*
X114120814Y-63709390D01*
X114120827Y-63709397D01*
X114220060Y-63750500D01*
X114266503Y-63769737D01*
X114421153Y-63800499D01*
X114421156Y-63800500D01*
X114421158Y-63800500D01*
X114578844Y-63800500D01*
X114578845Y-63800499D01*
X114655152Y-63785320D01*
X114733488Y-63769739D01*
X114733489Y-63769738D01*
X114733497Y-63769737D01*
X114757155Y-63759937D01*
X114804604Y-63750500D01*
X116945396Y-63750500D01*
X116992844Y-63759937D01*
X117016503Y-63769737D01*
X117016508Y-63769738D01*
X117016511Y-63769739D01*
X117171153Y-63800499D01*
X117171156Y-63800500D01*
X117171158Y-63800500D01*
X117328844Y-63800500D01*
X117328845Y-63800499D01*
X117483497Y-63769737D01*
X117629179Y-63709394D01*
X117760289Y-63621789D01*
X117871789Y-63510289D01*
X117919471Y-63438929D01*
X117959390Y-63379185D01*
X117959390Y-63379184D01*
X117959394Y-63379179D01*
X118019737Y-63233497D01*
X118050500Y-63078842D01*
X118050500Y-62921158D01*
X118050500Y-62921155D01*
X118050499Y-62921153D01*
X118037432Y-62855462D01*
X118019737Y-62766503D01*
X118003852Y-62728152D01*
X117959397Y-62620827D01*
X117959390Y-62620814D01*
X117871789Y-62489711D01*
X117871786Y-62489707D01*
X117760292Y-62378213D01*
X117760288Y-62378210D01*
X117629185Y-62290609D01*
X117629172Y-62290602D01*
X117483501Y-62230264D01*
X117483489Y-62230261D01*
X117328845Y-62199500D01*
X117328842Y-62199500D01*
X117171158Y-62199500D01*
X117171155Y-62199500D01*
X117016511Y-62230260D01*
X117016506Y-62230262D01*
X117016504Y-62230262D01*
X117016503Y-62230263D01*
X116992844Y-62240062D01*
X116945396Y-62249500D01*
X114804604Y-62249500D01*
X114757155Y-62240062D01*
X114733497Y-62230263D01*
X114733493Y-62230262D01*
X114733488Y-62230260D01*
X114578845Y-62199500D01*
X114578842Y-62199500D01*
X114421158Y-62199500D01*
X114421155Y-62199500D01*
X114266510Y-62230261D01*
X114266498Y-62230264D01*
X114120827Y-62290602D01*
X114120814Y-62290609D01*
X113989711Y-62378210D01*
X113989707Y-62378213D01*
X113878213Y-62489707D01*
X113878210Y-62489711D01*
X113790609Y-62620814D01*
X113790602Y-62620827D01*
X113730264Y-62766498D01*
X113730261Y-62766510D01*
X113699500Y-62921153D01*
X88583929Y-62921153D01*
X88593259Y-62897848D01*
X88650174Y-62857320D01*
X88690730Y-62850500D01*
X89273920Y-62850500D01*
X89371462Y-62831096D01*
X89418913Y-62821658D01*
X89555495Y-62765084D01*
X89604729Y-62732186D01*
X89678416Y-62682952D01*
X93215295Y-59146070D01*
X93255519Y-59119193D01*
X93279179Y-59109394D01*
X93279184Y-59109390D01*
X93279187Y-59109389D01*
X93410289Y-59021789D01*
X93521786Y-58910292D01*
X93521789Y-58910289D01*
X93609394Y-58779179D01*
X93669737Y-58633497D01*
X93700500Y-58478842D01*
X93700500Y-58378275D01*
X107316529Y-58378275D01*
X107321631Y-58553643D01*
X107321632Y-58553646D01*
X107367040Y-58723110D01*
X107450305Y-58877533D01*
X107566938Y-59008593D01*
X107566939Y-59008595D01*
X107645103Y-59065036D01*
X107650705Y-59069081D01*
X107687498Y-59090323D01*
X107735714Y-59140889D01*
X107749500Y-59197711D01*
X107749500Y-60445396D01*
X107740062Y-60492844D01*
X107730265Y-60516498D01*
X107730262Y-60516506D01*
X107730260Y-60516511D01*
X107699500Y-60671153D01*
X107699500Y-60828846D01*
X107730261Y-60983489D01*
X107730264Y-60983501D01*
X107790602Y-61129172D01*
X107790609Y-61129185D01*
X107878210Y-61260288D01*
X107878213Y-61260292D01*
X107989707Y-61371786D01*
X107989711Y-61371789D01*
X108120814Y-61459390D01*
X108120827Y-61459397D01*
X108260011Y-61517048D01*
X108266503Y-61519737D01*
X108421153Y-61550499D01*
X108421156Y-61550500D01*
X108421158Y-61550500D01*
X108578844Y-61550500D01*
X108578845Y-61550499D01*
X108733497Y-61519737D01*
X108879179Y-61459394D01*
X109010289Y-61371789D01*
X109121789Y-61260289D01*
X109209394Y-61129179D01*
X109269737Y-60983497D01*
X109300500Y-60828842D01*
X109300500Y-60671158D01*
X109300500Y-60671155D01*
X109300499Y-60671153D01*
X109269739Y-60516511D01*
X109269738Y-60516508D01*
X109269737Y-60516503D01*
X109259937Y-60492844D01*
X109250500Y-60445396D01*
X109250500Y-59596842D01*
X109270185Y-59529803D01*
X109292063Y-59504212D01*
X109413146Y-59396459D01*
X109473634Y-59312693D01*
X109578010Y-59131908D01*
X109578013Y-59131902D01*
X125999500Y-59131902D01*
X125999500Y-59368097D01*
X126036446Y-59601368D01*
X126109433Y-59825996D01*
X126172362Y-59949500D01*
X126216657Y-60036433D01*
X126355483Y-60227510D01*
X126522490Y-60394517D01*
X126713567Y-60533343D01*
X126812991Y-60584002D01*
X126924003Y-60640566D01*
X126924005Y-60640566D01*
X126924008Y-60640568D01*
X127018139Y-60671153D01*
X127148631Y-60713553D01*
X127381903Y-60750500D01*
X127381908Y-60750500D01*
X127618097Y-60750500D01*
X127851368Y-60713553D01*
X128075992Y-60640568D01*
X128286433Y-60533343D01*
X128477510Y-60394517D01*
X128644517Y-60227510D01*
X128783343Y-60036433D01*
X128890568Y-59825992D01*
X128963553Y-59601368D01*
X128974888Y-59529803D01*
X129000500Y-59368097D01*
X129000500Y-59131902D01*
X130499500Y-59131902D01*
X130499500Y-59368097D01*
X130536446Y-59601368D01*
X130609433Y-59825996D01*
X130672362Y-59949500D01*
X130716657Y-60036433D01*
X130855483Y-60227510D01*
X131022490Y-60394517D01*
X131213567Y-60533343D01*
X131312991Y-60584002D01*
X131424003Y-60640566D01*
X131424005Y-60640566D01*
X131424008Y-60640568D01*
X131518139Y-60671153D01*
X131648631Y-60713553D01*
X131881903Y-60750500D01*
X131881908Y-60750500D01*
X132118097Y-60750500D01*
X132351368Y-60713553D01*
X132575992Y-60640568D01*
X132786433Y-60533343D01*
X132977510Y-60394517D01*
X133144517Y-60227510D01*
X133283343Y-60036433D01*
X133390568Y-59825992D01*
X133463553Y-59601368D01*
X133474888Y-59529803D01*
X133500500Y-59368097D01*
X133500500Y-59131902D01*
X133463553Y-58898631D01*
X133390566Y-58674003D01*
X133334002Y-58562991D01*
X133283343Y-58463567D01*
X133144517Y-58272490D01*
X132977510Y-58105483D01*
X132786433Y-57966657D01*
X132575996Y-57859433D01*
X132351368Y-57786446D01*
X132118097Y-57749500D01*
X132118092Y-57749500D01*
X131881908Y-57749500D01*
X131881903Y-57749500D01*
X131648631Y-57786446D01*
X131424003Y-57859433D01*
X131213566Y-57966657D01*
X131106453Y-58044480D01*
X131022490Y-58105483D01*
X131022488Y-58105485D01*
X131022487Y-58105485D01*
X130855485Y-58272487D01*
X130855485Y-58272488D01*
X130855483Y-58272490D01*
X130820127Y-58321153D01*
X130716657Y-58463566D01*
X130609433Y-58674003D01*
X130536446Y-58898631D01*
X130499500Y-59131902D01*
X129000500Y-59131902D01*
X128963553Y-58898631D01*
X128890566Y-58674003D01*
X128834002Y-58562991D01*
X128783343Y-58463567D01*
X128644517Y-58272490D01*
X128477510Y-58105483D01*
X128286433Y-57966657D01*
X128075996Y-57859433D01*
X127851368Y-57786446D01*
X127618097Y-57749500D01*
X127618092Y-57749500D01*
X127381908Y-57749500D01*
X127381903Y-57749500D01*
X127148631Y-57786446D01*
X126924003Y-57859433D01*
X126713566Y-57966657D01*
X126606453Y-58044480D01*
X126522490Y-58105483D01*
X126522488Y-58105485D01*
X126522487Y-58105485D01*
X126355485Y-58272487D01*
X126355485Y-58272488D01*
X126355483Y-58272490D01*
X126320127Y-58321153D01*
X126216657Y-58463566D01*
X126109433Y-58674003D01*
X126036446Y-58898631D01*
X125999500Y-59131902D01*
X109578013Y-59131902D01*
X109616619Y-59065036D01*
X109705962Y-58910288D01*
X109873642Y-58619857D01*
X109915943Y-58525590D01*
X109951420Y-58353772D01*
X109946318Y-58178404D01*
X109912035Y-58050458D01*
X109913698Y-57980608D01*
X109952861Y-57922746D01*
X109999713Y-57898591D01*
X110127662Y-57864308D01*
X110282086Y-57781042D01*
X110282087Y-57781041D01*
X110282089Y-57781040D01*
X110413141Y-57664414D01*
X110413145Y-57664410D01*
X110437803Y-57630263D01*
X110473634Y-57580643D01*
X110873642Y-56887807D01*
X110915943Y-56793540D01*
X110951420Y-56621722D01*
X110946318Y-56446354D01*
X110900910Y-56276890D01*
X110817645Y-56122467D01*
X110701012Y-55991407D01*
X110701011Y-55991406D01*
X110701010Y-55991404D01*
X110617251Y-55930923D01*
X110617248Y-55930921D01*
X110617245Y-55930919D01*
X110617233Y-55930912D01*
X110446475Y-55832324D01*
X110438191Y-55823636D01*
X110427272Y-55818650D01*
X110414527Y-55798818D01*
X110398259Y-55781757D01*
X110395043Y-55768500D01*
X110389498Y-55759872D01*
X110384475Y-55724937D01*
X110384475Y-55528918D01*
X110404160Y-55461879D01*
X110405373Y-55460027D01*
X110405885Y-55459259D01*
X110459394Y-55379179D01*
X110519737Y-55233497D01*
X110550500Y-55078842D01*
X110550500Y-54921158D01*
X110550500Y-54921155D01*
X110550499Y-54921153D01*
X110519738Y-54766510D01*
X110519737Y-54766503D01*
X110480298Y-54671288D01*
X110459397Y-54620827D01*
X110459390Y-54620814D01*
X110374350Y-54493544D01*
X110374349Y-54493542D01*
X110374347Y-54493540D01*
X110371791Y-54489715D01*
X110371789Y-54489711D01*
X110371788Y-54489710D01*
X110371786Y-54489707D01*
X110310790Y-54428711D01*
X133799500Y-54428711D01*
X133799500Y-54671288D01*
X133829229Y-54897112D01*
X133831162Y-54911789D01*
X133837142Y-54934108D01*
X133893947Y-55146104D01*
X133985216Y-55366447D01*
X133986776Y-55370212D01*
X134108064Y-55580289D01*
X134108066Y-55580292D01*
X134108067Y-55580293D01*
X134255733Y-55772736D01*
X134255739Y-55772743D01*
X134427256Y-55944260D01*
X134427262Y-55944265D01*
X134619711Y-56091936D01*
X134829788Y-56213224D01*
X135053900Y-56306054D01*
X135288211Y-56368838D01*
X135468586Y-56392584D01*
X135528711Y-56400500D01*
X135528712Y-56400500D01*
X135771289Y-56400500D01*
X135819388Y-56394167D01*
X136011789Y-56368838D01*
X136246100Y-56306054D01*
X136470212Y-56213224D01*
X136680289Y-56091936D01*
X136872738Y-55944265D01*
X137044265Y-55772738D01*
X137191936Y-55580289D01*
X137313224Y-55370212D01*
X137406054Y-55146100D01*
X137468838Y-54911789D01*
X137500500Y-54671288D01*
X137500500Y-54428712D01*
X137468838Y-54188211D01*
X137406054Y-53953900D01*
X137313224Y-53729788D01*
X137191936Y-53519711D01*
X137122459Y-53429166D01*
X137044266Y-53327263D01*
X137044260Y-53327256D01*
X136872743Y-53155739D01*
X136872736Y-53155733D01*
X136680293Y-53008067D01*
X136680292Y-53008066D01*
X136680289Y-53008064D01*
X136470212Y-52886776D01*
X136470205Y-52886773D01*
X136246104Y-52793947D01*
X136128944Y-52762554D01*
X136011789Y-52731162D01*
X136011788Y-52731161D01*
X136011785Y-52731161D01*
X135771289Y-52699500D01*
X135771288Y-52699500D01*
X135528712Y-52699500D01*
X135528711Y-52699500D01*
X135288214Y-52731161D01*
X135053895Y-52793947D01*
X134829794Y-52886773D01*
X134829785Y-52886777D01*
X134619706Y-53008067D01*
X134427263Y-53155733D01*
X134427256Y-53155739D01*
X134255739Y-53327256D01*
X134255733Y-53327263D01*
X134108067Y-53519706D01*
X133986777Y-53729785D01*
X133986773Y-53729794D01*
X133893947Y-53953895D01*
X133831161Y-54188214D01*
X133799500Y-54428711D01*
X110310790Y-54428711D01*
X110260292Y-54378213D01*
X110260288Y-54378210D01*
X110129185Y-54290609D01*
X110129172Y-54290602D01*
X109983501Y-54230264D01*
X109983489Y-54230261D01*
X109828845Y-54199500D01*
X109828842Y-54199500D01*
X109671158Y-54199500D01*
X109671155Y-54199500D01*
X109516510Y-54230261D01*
X109516498Y-54230264D01*
X109370827Y-54290602D01*
X109370814Y-54290609D01*
X109239711Y-54378210D01*
X109239707Y-54378213D01*
X109128213Y-54489707D01*
X109128207Y-54489715D01*
X109040607Y-54620818D01*
X109040602Y-54620827D01*
X109009990Y-54694730D01*
X108998534Y-54716164D01*
X108968890Y-54760530D01*
X108912317Y-54897111D01*
X108912315Y-54897117D01*
X108883475Y-55042104D01*
X108883475Y-55524089D01*
X108863790Y-55591128D01*
X108858591Y-55597926D01*
X108858767Y-55598053D01*
X108794315Y-55687307D01*
X108453921Y-56276890D01*
X108394308Y-56380143D01*
X108394303Y-56380152D01*
X108394301Y-56380158D01*
X108352008Y-56474405D01*
X108352007Y-56474408D01*
X108316529Y-56646225D01*
X108321631Y-56821595D01*
X108355914Y-56949541D01*
X108354251Y-57019391D01*
X108315088Y-57077253D01*
X108268233Y-57101409D01*
X108140287Y-57135692D01*
X107985860Y-57218959D01*
X107854808Y-57335585D01*
X107854804Y-57335589D01*
X107794315Y-57419357D01*
X107410179Y-58084704D01*
X107394308Y-58112193D01*
X107394303Y-58112202D01*
X107394301Y-58112208D01*
X107352008Y-58206455D01*
X107352007Y-58206458D01*
X107316529Y-58378275D01*
X93700500Y-58378275D01*
X93700500Y-58321158D01*
X93700500Y-58321155D01*
X93700499Y-58321153D01*
X93677685Y-58206460D01*
X93669737Y-58166503D01*
X93669735Y-58166498D01*
X93609397Y-58020827D01*
X93609390Y-58020814D01*
X93521789Y-57889711D01*
X93521786Y-57889707D01*
X93410292Y-57778213D01*
X93410288Y-57778210D01*
X93279185Y-57690609D01*
X93279172Y-57690602D01*
X93133501Y-57630264D01*
X93133489Y-57630261D01*
X92978845Y-57599500D01*
X92978842Y-57599500D01*
X92821158Y-57599500D01*
X92821155Y-57599500D01*
X92666510Y-57630261D01*
X92666498Y-57630264D01*
X92520827Y-57690602D01*
X92520814Y-57690609D01*
X92389711Y-57778210D01*
X92389707Y-57778213D01*
X92278213Y-57889707D01*
X92278207Y-57889715D01*
X92190607Y-58020818D01*
X92190605Y-58020822D01*
X92180805Y-58044480D01*
X92153927Y-58084704D01*
X88925451Y-61313181D01*
X88864128Y-61346666D01*
X88837770Y-61349500D01*
X87626076Y-61349500D01*
X87597242Y-61355234D01*
X87597243Y-61355235D01*
X87481093Y-61378339D01*
X87481083Y-61378342D01*
X87401081Y-61411479D01*
X87401082Y-61411480D01*
X87385700Y-61417852D01*
X87344505Y-61434916D01*
X87307877Y-61459390D01*
X87289517Y-61471658D01*
X87221586Y-61517047D01*
X87221582Y-61517050D01*
X86809700Y-61928931D01*
X86784364Y-61942765D01*
X86760566Y-61959106D01*
X86754076Y-61959304D01*
X86748377Y-61962416D01*
X86719580Y-61960356D01*
X86690729Y-61961237D01*
X86683091Y-61957747D01*
X86678685Y-61957432D01*
X86658192Y-61947561D01*
X86654923Y-61945598D01*
X86624990Y-61925027D01*
X86512075Y-61859835D01*
X86511117Y-61859260D01*
X86488146Y-61834329D01*
X86464728Y-61809768D01*
X86464446Y-61808606D01*
X86463773Y-61807876D01*
X86462487Y-61800531D01*
X86450944Y-61752949D01*
X86450944Y-61054604D01*
X86460383Y-61007151D01*
X86470181Y-60983497D01*
X86500944Y-60828842D01*
X86500944Y-60671158D01*
X86500944Y-60671155D01*
X86500943Y-60671153D01*
X86494859Y-60640566D01*
X86470181Y-60516503D01*
X86470179Y-60516498D01*
X86409841Y-60370827D01*
X86409834Y-60370814D01*
X86322233Y-60239711D01*
X86322230Y-60239707D01*
X86210736Y-60128213D01*
X86210732Y-60128210D01*
X86079629Y-60040609D01*
X86079616Y-60040602D01*
X85933945Y-59980264D01*
X85933933Y-59980261D01*
X85779289Y-59949500D01*
X85779286Y-59949500D01*
X85621602Y-59949500D01*
X85621599Y-59949500D01*
X85466954Y-59980261D01*
X85466942Y-59980264D01*
X85321271Y-60040602D01*
X85321258Y-60040609D01*
X85190155Y-60128210D01*
X85190151Y-60128213D01*
X85078657Y-60239707D01*
X85078654Y-60239711D01*
X84991053Y-60370814D01*
X84991046Y-60370827D01*
X84930708Y-60516498D01*
X84930705Y-60516510D01*
X84899944Y-60671153D01*
X84899944Y-60828846D01*
X84930705Y-60983489D01*
X84930707Y-60983497D01*
X84940505Y-61007151D01*
X84949944Y-61054604D01*
X84949944Y-62760678D01*
X84933331Y-62822678D01*
X84561845Y-63466111D01*
X84561843Y-63466116D01*
X84545920Y-63499497D01*
X84545919Y-63499498D01*
X84506715Y-63659111D01*
X84508435Y-63823453D01*
X84550974Y-63982210D01*
X84550974Y-63982211D01*
X84631653Y-64125392D01*
X84631657Y-64125398D01*
X84741615Y-64240062D01*
X84745414Y-64244023D01*
X84773353Y-64263224D01*
X84775901Y-64264975D01*
X85149486Y-64480665D01*
X85149512Y-64480678D01*
X85182866Y-64496588D01*
X85182871Y-64496589D01*
X85182876Y-64496592D01*
X85342487Y-64535796D01*
X85342489Y-64535795D01*
X85342490Y-64535796D01*
X85465746Y-64534505D01*
X85506833Y-64534075D01*
X85506834Y-64534074D01*
X85514560Y-64533017D01*
X85514981Y-64536092D01*
X85570406Y-64537381D01*
X85628290Y-64576512D01*
X85645968Y-64610761D01*
X85647876Y-64609983D01*
X85650826Y-64617211D01*
X85731505Y-64760392D01*
X85731509Y-64760398D01*
X85845266Y-64879023D01*
X85875750Y-64899973D01*
X85875753Y-64899975D01*
X86007177Y-64975853D01*
X86055393Y-65026420D01*
X86068615Y-65095027D01*
X86042647Y-65159892D01*
X86032858Y-65170921D01*
X84662943Y-66540835D01*
X84638089Y-66554405D01*
X84614893Y-66570650D01*
X84605391Y-66572260D01*
X84601620Y-66574320D01*
X84580185Y-66577056D01*
X84578370Y-66577128D01*
X84518907Y-66577751D01*
X84511282Y-66579793D01*
X84497464Y-66580343D01*
X84476426Y-66575063D01*
X84454741Y-66574539D01*
X84443207Y-66566726D01*
X84429696Y-66563336D01*
X84414851Y-66547519D01*
X84396893Y-66535355D01*
X84388935Y-66519905D01*
X84381881Y-66512390D01*
X84380103Y-66502761D01*
X84379322Y-66501245D01*
X84377396Y-66502032D01*
X84374449Y-66494811D01*
X84293826Y-66351728D01*
X84180161Y-66233199D01*
X84180156Y-66233194D01*
X84178096Y-66231779D01*
X83441950Y-67506826D01*
X82705802Y-68781870D01*
X59966674Y-68781870D01*
X60118975Y-68667644D01*
X61081171Y-67945997D01*
X82032215Y-67945997D01*
X82033936Y-68110214D01*
X82076439Y-68268842D01*
X82157061Y-68411923D01*
X82270726Y-68530452D01*
X82270731Y-68530456D01*
X82272790Y-68531871D01*
X82272790Y-68531870D01*
X82883937Y-67473332D01*
X82883937Y-67473331D01*
X82407624Y-67198332D01*
X82407623Y-67198332D01*
X82087308Y-67753134D01*
X82087301Y-67753147D01*
X82071393Y-67786499D01*
X82071387Y-67786515D01*
X82032217Y-67945986D01*
X82032215Y-67945997D01*
X61081171Y-67945997D01*
X61363407Y-67734320D01*
X61364508Y-67733489D01*
X61365453Y-67732778D01*
X61477953Y-67621741D01*
X61557881Y-67485371D01*
X61599790Y-67332961D01*
X61600824Y-67174897D01*
X61568937Y-66919804D01*
X61580154Y-66850841D01*
X61626874Y-66798890D01*
X61667782Y-66782808D01*
X61733497Y-66769737D01*
X61879179Y-66709394D01*
X62010289Y-66621789D01*
X62121789Y-66510289D01*
X62209394Y-66379179D01*
X62220765Y-66351728D01*
X62235624Y-66315854D01*
X62269737Y-66233497D01*
X62300500Y-66078842D01*
X62300500Y-66062250D01*
X72037106Y-66062250D01*
X72042207Y-66237618D01*
X72087616Y-66407085D01*
X72170883Y-66561511D01*
X72287509Y-66692563D01*
X72287513Y-66692567D01*
X72371281Y-66753056D01*
X73064117Y-67153064D01*
X73130225Y-67182729D01*
X73158379Y-67195363D01*
X73158381Y-67195363D01*
X73158384Y-67195365D01*
X73330202Y-67230842D01*
X73505570Y-67225741D01*
X73675034Y-67180333D01*
X73829457Y-67097067D01*
X73829458Y-67097066D01*
X73829460Y-67097065D01*
X73960512Y-66980439D01*
X73960516Y-66980435D01*
X73960517Y-66980434D01*
X74021005Y-66896668D01*
X74096839Y-66765319D01*
X82657623Y-66765319D01*
X82657623Y-66765320D01*
X83133936Y-67040319D01*
X83133937Y-67040319D01*
X83745084Y-65981780D01*
X83742829Y-65980705D01*
X83742827Y-65980704D01*
X83583341Y-65941531D01*
X83583335Y-65941530D01*
X83419127Y-65943249D01*
X83260493Y-65985755D01*
X83117416Y-66066374D01*
X83117413Y-66066376D01*
X82998881Y-66180044D01*
X82998880Y-66180045D01*
X82977945Y-66210506D01*
X82977943Y-66210508D01*
X82657623Y-66765319D01*
X74096839Y-66765319D01*
X74129126Y-66709397D01*
X74142749Y-66685801D01*
X74205131Y-66577751D01*
X74421013Y-66203832D01*
X74463314Y-66109565D01*
X74489921Y-65980704D01*
X74498791Y-65937749D01*
X74493690Y-65762381D01*
X74493690Y-65762379D01*
X74448282Y-65592915D01*
X74365016Y-65438492D01*
X74324115Y-65392532D01*
X74296972Y-65342192D01*
X74091170Y-64574135D01*
X73323115Y-64779935D01*
X73265948Y-64781598D01*
X73205698Y-64769157D01*
X73030330Y-64774258D01*
X72860863Y-64819667D01*
X72706437Y-64902934D01*
X72575385Y-65019560D01*
X72575381Y-65019564D01*
X72514892Y-65103332D01*
X72115686Y-65794780D01*
X72114885Y-65796168D01*
X72114880Y-65796177D01*
X72114878Y-65796183D01*
X72072585Y-65890430D01*
X72072584Y-65890433D01*
X72037106Y-66062250D01*
X62300500Y-66062250D01*
X62300500Y-65921158D01*
X62300500Y-65921155D01*
X62300499Y-65921153D01*
X62290277Y-65869766D01*
X62269737Y-65766503D01*
X62267018Y-65759938D01*
X62209397Y-65620827D01*
X62209390Y-65620814D01*
X62121789Y-65489711D01*
X62121786Y-65489707D01*
X62010292Y-65378213D01*
X62010288Y-65378210D01*
X61879185Y-65290609D01*
X61879172Y-65290602D01*
X61733501Y-65230264D01*
X61733489Y-65230261D01*
X61717457Y-65227072D01*
X61655546Y-65194688D01*
X61620972Y-65133972D01*
X61624711Y-65064202D01*
X61640060Y-65034350D01*
X62237142Y-64181377D01*
X73167949Y-64181377D01*
X73167949Y-64303872D01*
X73449416Y-64228453D01*
X73967949Y-64228453D01*
X73967949Y-64307445D01*
X73988393Y-64383745D01*
X74027889Y-64452154D01*
X74083744Y-64508009D01*
X74152153Y-64547505D01*
X74228453Y-64567949D01*
X74307445Y-64567949D01*
X74383745Y-64547505D01*
X74452154Y-64508009D01*
X74508009Y-64452154D01*
X74512298Y-64444726D01*
X74574135Y-64444726D01*
X74786738Y-65238169D01*
X74844466Y-65208757D01*
X74844469Y-65208754D01*
X74984551Y-65106981D01*
X75106981Y-64984551D01*
X75208753Y-64844473D01*
X75287357Y-64690206D01*
X75340863Y-64525533D01*
X75367949Y-64354520D01*
X75367949Y-64232024D01*
X75367948Y-64232024D01*
X74574135Y-64444726D01*
X74512298Y-64444726D01*
X74547505Y-64383745D01*
X74567949Y-64307445D01*
X74567949Y-64228453D01*
X74547505Y-64152153D01*
X74508009Y-64083744D01*
X74452154Y-64027889D01*
X74383745Y-63988393D01*
X74307445Y-63967949D01*
X74228453Y-63967949D01*
X74152153Y-63988393D01*
X74083744Y-64027889D01*
X74027889Y-64083744D01*
X73988393Y-64152153D01*
X73967949Y-64228453D01*
X73449416Y-64228453D01*
X73961761Y-64091170D01*
X73749158Y-63297727D01*
X73691424Y-63327144D01*
X73551346Y-63428916D01*
X73428916Y-63551346D01*
X73327144Y-63691424D01*
X73248540Y-63845691D01*
X73195034Y-64010364D01*
X73167949Y-64181377D01*
X62237142Y-64181377D01*
X62946542Y-63167949D01*
X74232024Y-63167949D01*
X74444726Y-63961761D01*
X75238169Y-63749158D01*
X75208753Y-63691425D01*
X75106981Y-63551346D01*
X74984551Y-63428916D01*
X74844473Y-63327144D01*
X74690206Y-63248540D01*
X74525533Y-63195034D01*
X74354520Y-63167949D01*
X74232024Y-63167949D01*
X62946542Y-63167949D01*
X62996045Y-63097231D01*
X63006604Y-63078951D01*
X63048629Y-63006195D01*
X63048630Y-63006190D01*
X63048634Y-63006185D01*
X63096245Y-62855459D01*
X63103224Y-62697546D01*
X63069093Y-62543207D01*
X62996180Y-62402961D01*
X62996179Y-62402959D01*
X62889452Y-62286365D01*
X62889451Y-62286364D01*
X62756186Y-62201366D01*
X62756187Y-62201366D01*
X62605462Y-62153756D01*
X62605459Y-62153755D01*
X62447546Y-62146776D01*
X62447544Y-62146776D01*
X62447541Y-62146776D01*
X56902749Y-62628931D01*
X56836553Y-62616306D01*
X54520798Y-61458429D01*
X54520788Y-61458424D01*
X54411110Y-61417852D01*
X54396856Y-61412579D01*
X54239818Y-61394586D01*
X54239806Y-61394586D01*
X54083476Y-61417849D01*
X54083471Y-61417850D01*
X54083470Y-61417851D01*
X54083468Y-61417852D01*
X53938471Y-61480788D01*
X53814707Y-61579107D01*
X53814707Y-61579108D01*
X53720602Y-61706115D01*
X53662578Y-61853147D01*
X53644586Y-62010181D01*
X50500500Y-62010181D01*
X50500500Y-55123870D01*
X53161601Y-55123870D01*
X53161601Y-55366447D01*
X53193262Y-55606944D01*
X53256048Y-55841263D01*
X53318240Y-55991407D01*
X53348877Y-56065371D01*
X53470165Y-56275448D01*
X53470167Y-56275451D01*
X53470168Y-56275452D01*
X53617834Y-56467895D01*
X53617840Y-56467902D01*
X53789357Y-56639419D01*
X53789363Y-56639424D01*
X53981812Y-56787095D01*
X54191889Y-56908383D01*
X54416001Y-57001213D01*
X54650312Y-57063997D01*
X54825883Y-57087111D01*
X54890812Y-57095659D01*
X54890813Y-57095659D01*
X55133390Y-57095659D01*
X55181489Y-57089326D01*
X55373890Y-57063997D01*
X55608201Y-57001213D01*
X55832313Y-56908383D01*
X56042390Y-56787095D01*
X56234839Y-56639424D01*
X56406366Y-56467897D01*
X56554037Y-56275448D01*
X56675325Y-56065371D01*
X56768155Y-55841259D01*
X56830939Y-55606948D01*
X56862601Y-55366447D01*
X56862601Y-55123871D01*
X56830939Y-54883370D01*
X56768155Y-54649059D01*
X56675325Y-54424947D01*
X56554037Y-54214870D01*
X56406366Y-54022421D01*
X56406361Y-54022415D01*
X56234844Y-53850898D01*
X56234837Y-53850892D01*
X56042394Y-53703226D01*
X56042393Y-53703225D01*
X56042390Y-53703223D01*
X55832313Y-53581935D01*
X55832306Y-53581932D01*
X55608205Y-53489106D01*
X55484944Y-53456078D01*
X55373890Y-53426321D01*
X55373889Y-53426320D01*
X55373886Y-53426320D01*
X55133390Y-53394659D01*
X55133389Y-53394659D01*
X54890813Y-53394659D01*
X54890812Y-53394659D01*
X54650315Y-53426320D01*
X54415996Y-53489106D01*
X54191895Y-53581932D01*
X54191886Y-53581936D01*
X53981807Y-53703226D01*
X53789364Y-53850892D01*
X53789357Y-53850898D01*
X53617840Y-54022415D01*
X53617834Y-54022422D01*
X53470168Y-54214865D01*
X53348878Y-54424944D01*
X53348874Y-54424953D01*
X53256048Y-54649054D01*
X53193262Y-54883373D01*
X53161601Y-55123870D01*
X50500500Y-55123870D01*
X50500500Y-55002706D01*
X50500618Y-54997297D01*
X50503942Y-54921155D01*
X50517387Y-54613224D01*
X50518325Y-54602496D01*
X50568151Y-54224032D01*
X50570024Y-54213402D01*
X50652648Y-53840714D01*
X50655446Y-53830276D01*
X50687130Y-53729788D01*
X50770230Y-53466227D01*
X50773917Y-53456095D01*
X50920003Y-53103412D01*
X50924561Y-53093638D01*
X51100822Y-52755045D01*
X51106217Y-52745700D01*
X51311325Y-52423744D01*
X51317515Y-52414905D01*
X51549896Y-52112060D01*
X51556834Y-52103791D01*
X51814726Y-51822352D01*
X51822352Y-51814726D01*
X52103791Y-51556834D01*
X52112060Y-51549896D01*
X52414905Y-51317515D01*
X52423744Y-51311325D01*
X52745700Y-51106217D01*
X52755045Y-51100822D01*
X53093638Y-50924561D01*
X53103412Y-50920003D01*
X53456095Y-50773917D01*
X53466227Y-50770230D01*
X53830285Y-50655443D01*
X53840714Y-50652648D01*
X54213402Y-50570024D01*
X54224032Y-50568151D01*
X54602496Y-50518325D01*
X54613224Y-50517387D01*
X54997297Y-50500617D01*
X55002706Y-50500500D01*
X55065892Y-50500500D01*
X134934108Y-50500500D01*
X134997294Y-50500500D01*
X135002702Y-50500617D01*
G37*
%TD.AperFunction*%
%TD*%
M02*
